<svg xmlns="http://www.w3.org/2000/svg" xmlns:xlink="http://www.w3.org/1999/xlink" width="338" height="387" viewBox="0 0 338 387"><defs><style>.a{fill:#fff;stroke:#707070;}.b{clip-path:url(#a);}.c{opacity:0.2;fill:url(#b);}</style><clipPath id="a"><rect class="a" width="338" height="387" transform="translate(12 120)"/></clipPath><linearGradient id="b" x1="0.5" x2="0.5" y2="1" gradientUnits="objectBoundingBox"><stop offset="0" stop-color="#a8e8e4"/><stop offset="1" stop-color="#88cedb"/></linearGradient></defs><g class="b" transform="translate(-12 -120)"><path class="c" d="M0,201.136Q0,124.669,0,48.2c0-1.2,0-2.4.04-3.6.027-.9.494-1.316,1.473-1.363.435-.021.873-.027,1.31-.027q13.261,0,26.524,0a10,10,0,0,1,1.946.162,1.2,1.2,0,0,1,.67.614,2.22,2.22,0,0,1,.168.953c.022,1.2.019,2.4.019,3.6q0,148.512,0,297.023,0,3.275.014,6.551a11.115,11.115,0,0,0,.412,3.884,2.387,2.387,0,0,1,.138.966c-.169,2.426.475,4.765.816,7.126.31,2.146.955,4.242,1.46,6.359a69.4,69.4,0,0,0,3.173,9.956,79.308,79.308,0,0,0,5.471,11.5c2.209,3.642,4.546,7.18,7.086,10.586a70.539,70.539,0,0,0,9.8,10.513,76.986,76.986,0,0,0,12.678,9.2,73.836,73.836,0,0,0,16.131,7.1c3.864,1.124,7.8,1.979,11.743,2.781a12.379,12.379,0,0,0,1.629.122,8.435,8.435,0,0,1,1.952.149,19.7,19.7,0,0,0,5.843.51q3.765.04,7.531,0a22.307,22.307,0,0,0,5.191-.475c1.566-.383,3.216-.423,4.828-.724a78.589,78.589,0,0,0,20.081-6.69,103.267,103.267,0,0,0,13.683-8.3,3.565,3.565,0,0,0,.759-.995.322.322,0,0,0-.1-.291,3.623,3.623,0,0,0-.926-.182c-2.184-.027-4.366-.029-6.549-.044a14.059,14.059,0,0,1-3.245-.317,16.223,16.223,0,0,0-2.917-.276,12.093,12.093,0,0,1-3.88-.473,3.73,3.73,0,0,0-.966-.149,108.85,108.85,0,0,1-17.24-3.49c-4.409-1.254-8.656-2.944-12.915-4.594-2.028-.787-3.937-1.88-5.9-2.823a95.691,95.691,0,0,1-14.351-8.458c-3.1-2.214-6.13-4.511-9.017-7.021-2.472-2.15-4.817-4.415-7.173-6.681-2.052-1.973-3.675-4.31-5.6-6.4-1.248-1.354-2.211-2.964-3.382-4.4a82.5,82.5,0,0,1-6.147-9.249,80.631,80.631,0,0,1-4.79-8.933c-1.3-2.877-2.621-5.75-3.674-8.733-.508-1.438-1.115-2.844-1.55-4.3a141.349,141.349,0,0,1-3.888-15.165,27.409,27.409,0,0,1-.594-4.19c-.838-2.4-.369-4.991-1.113-7.411a7.074,7.074,0,0,1-.109-1.954c-.033-3.165-.076-6.331-.076-9.5q0-148.187,0-296.37c0-1.088.051-2.177.1-3.265a1.057,1.057,0,0,1,.82-.9A15.552,15.552,0,0,1,49.019,0Q62.608-.007,76.2,0c.108,0,.219,0,.328,0,1.789.044,2.055.3,2.087,2.111.017,1.093.006,2.184.006,3.275q0,115.109,0,230.219c0,1.308.055,2.616.1,3.924.013.342.632.741.99.662a8.649,8.649,0,0,0,.944-.238c3.4-1.165,6.948-1.813,10.4-2.787.728-.206,1.506-.231,2.238-.423a1.132,1.132,0,0,0,.844-.918,16.8,16.8,0,0,0,.158-2.274q.019-8.841.008-17.683c0-1.856.01-3.712.01-5.568a2.271,2.271,0,0,1,1.036-1.921,102.958,102.958,0,0,1,12.1-7.751c1.913-1.045,3.778-2.173,5.739-3.134a107.3,107.3,0,0,1,20.841-7.59c2.632-.67,5.3-1.219,7.951-1.8.529-.117,1.082-.119,1.62-.19.861-.117,1.72-.249,2.578-.371.646-.092,1.291-.222,1.94-.261a17.162,17.162,0,0,0,4.535-.5,6.325,6.325,0,0,1,1.951-.127q6.549-.014,13.1,0a5.677,5.677,0,0,1,1.629.084,22.077,22.077,0,0,0,5.514.561,17.885,17.885,0,0,1,1.935.272,8.573,8.573,0,0,0,1.6.291,25.891,25.891,0,0,1,5.8.9c3.628.7,7.226,1.576,10.792,2.543a78.695,78.695,0,0,1,8.073,2.648,109.871,109.871,0,0,1,11.39,4.941,117.355,117.355,0,0,1,13.739,8.214,60.074,60.074,0,0,1,7.707,6.046c3.547,2.587,6.429,5.886,9.53,8.949a26.356,26.356,0,0,1,3.232,3.682c.865,1.248,2,2.306,2.923,3.514,1.588,2.074,3.186,4.15,4.635,6.323,1.571,2.355,3.064,4.771,4.428,7.251,1.525,2.77,2.91,5.62,4.272,8.475,1.031,2.163,2.043,4.347,2.868,6.594a138.229,138.229,0,0,1,5.245,17.851c.54,2.437.8,4.931,1.329,7.378a13.821,13.821,0,0,1,.13,1.957,6.538,6.538,0,0,0,.141,1.625,18.885,18.885,0,0,1,.518,5.515,15.61,15.61,0,0,0,.407,4.218,6.964,6.964,0,0,1,.154,1.948c.017,1.637.011,3.275,0,4.912a5.84,5.84,0,0,1-.089,1.628,22.5,22.5,0,0,0-.5,5.85,12.358,12.358,0,0,1-.418,3.886,4.53,4.53,0,0,0-.193,1.287,81.4,81.4,0,0,1-2.241,13.165,114.638,114.638,0,0,1-3.829,12.827,68.043,68.043,0,0,1-3.492,8.456c-.7,1.362-1.378,2.728-2.036,4.106a113.564,113.564,0,0,1-8.581,14.283c-1.4,2.082-3.089,3.94-4.6,5.938-2.907,3.842-6.448,7.1-9.848,10.481a28.481,28.481,0,0,1-3.205,2.784c-1.572,1.159-2.945,2.572-4.538,3.736a111.873,111.873,0,0,1-13.4,8.728,4.706,4.706,0,0,0-2.238,2.263,87.589,87.589,0,0,1-5.864,10.2c-1.8,2.849-3.99,5.443-5.935,8.2a47.87,47.87,0,0,1-4.5,5.183,25.99,25.99,0,0,0-1.709,1.976,21.211,21.211,0,0,1-3.919,3.919,14.285,14.285,0,0,0-1.5,1.256A91.348,91.348,0,0,1,177.6,445.5c-2.011,1.3-4.152,2.4-6.223,3.6-2.548,1.481-5.245,2.659-7.9,3.926a88.451,88.451,0,0,1-15.026,5.465c-1.891.513-3.753,1.153-5.666,1.553-2.975.624-5.948,1.264-8.956,1.747a42.885,42.885,0,0,1-6.158.649c-3.21.89-6.5.569-9.762.608-4.036.049-8.076-.016-12.114-.041a9.914,9.914,0,0,1-3.237-.369,4.4,4.4,0,0,0-1.286-.2,18.412,18.412,0,0,1-5.5-.659,76.226,76.226,0,0,1-11.2-2.138c-2.64-.649-5.265-1.379-7.853-2.211-2.488-.8-4.955-1.685-7.362-2.7a108.163,108.163,0,0,1-10.38-4.816,122.817,122.817,0,0,1-13.561-8.5c-2.811-2.07-5.409-4.393-8.2-6.483a13.978,13.978,0,0,1-1.431-1.344q-2.9-2.886-5.793-5.783a29.1,29.1,0,0,1-2.792-3.2c-1.161-1.574-2.564-2.955-3.743-4.534a116.533,116.533,0,0,1-8.344-12.491c-1.447-2.568-2.873-5.143-4.111-7.811a80.514,80.514,0,0,1-3.869-9.359c-.662-2.074-1.335-4.149-2.057-6.206a107.989,107.989,0,0,1-3.1-12.334c-.548-2.445-.584-4.964-1.2-7.4a9.429,9.429,0,0,1-.122-1.957,13.376,13.376,0,0,0-.367-3.24,8.925,8.925,0,0,1-.233-2.264Q0,353.085,0,349.157q0-74.011,0-148.021m78.62,89.035h.022c0,4.69-.009,9.381,0,14.07a15.422,15.422,0,0,0,.459,4.861,8.3,8.3,0,0,1,.16,1.948A13.553,13.553,0,0,0,79.422,313c.625,2.863,1.093,5.756,1.781,8.611a89.946,89.946,0,0,0,6.869,18.652,78.153,78.153,0,0,0,4.743,8.195c1.614,2.466,3.4,4.795,5.222,7.1,1.547,1.962,3.235,3.823,4.947,5.647a75.418,75.418,0,0,0,9.906,8.489,57.1,57.1,0,0,0,6.554,4.294,81.7,81.7,0,0,0,19.542,8.152,66.647,66.647,0,0,0,7,1.534c2.682.383,5.354,1.01,8.1.814a7.068,7.068,0,0,1,1.612.209,9.238,9.238,0,0,0,1.6.288c3.04-.065,6.1.412,9.112-.415a5.893,5.893,0,0,1,1.3-.114,24.558,24.558,0,0,0,4.53-.5c1.469-.34,2.993-.491,4.483-.816a110.525,110.525,0,0,0,11.549-3.511,9.58,9.58,0,0,0,1.192-.537,3.127,3.127,0,0,0,1.685-1.908c.611-1.973,1.234-3.946,1.772-5.94a63.24,63.24,0,0,0,2.321-12.8,3.745,3.745,0,0,1,.12-.969,12.83,12.83,0,0,0,.459-4.532q.026-3.926,0-7.853a13.679,13.679,0,0,0-.458-4.534,5.232,5.232,0,0,1-.143-1.622,54.455,54.455,0,0,0-.982-6.766,50,50,0,0,0-1.794-7.275,77.7,77.7,0,0,0-4.35-11.61,75.833,75.833,0,0,0-8-13.454,97.727,97.727,0,0,0-8.158-9.762,91.744,91.744,0,0,0-10.625-9.164,75.636,75.636,0,0,0-7.666-4.977c-2.937-1.663-6.019-3.07-9.048-4.57a17.282,17.282,0,0,0-2.109-.88c-2.784-.942-5.579-1.854-8.369-2.776a44.273,44.273,0,0,0-5.063-1.238c-1.6-.329-3.238-.445-4.815-.817a17.08,17.08,0,0,0-3.881-.426c-4.035-.021-8.07-.036-12.1-.011a16.448,16.448,0,0,0-5.506.531,2.772,2.772,0,0,1-.972.1,24.957,24.957,0,0,0-5.785.937A80.365,80.365,0,0,0,83.5,270.5c-1.42.54-2.77,1.267-4.136,1.94a1.2,1.2,0,0,0-.676,1.048c-.038.762-.06,1.525-.06,2.287q-.009,7.2,0,14.4M242.31,301.04c0-1.2,0-2.4,0-3.6a5.922,5.922,0,0,0-.068-1.629,23.1,23.1,0,0,1-.581-5.838,6.089,6.089,0,0,0-.087-.977c-.637-3.086-1.191-6.193-1.948-9.249a75.439,75.439,0,0,0-5.826-15.919c-1.082-2.142-2.236-4.237-3.454-6.307a74.006,74.006,0,0,0-8.879-12.093A86.03,86.03,0,0,0,208,233.071a95.517,95.517,0,0,0-10.771-6.784,84.976,84.976,0,0,0-8.306-3.837,81.375,81.375,0,0,0-9.61-3.123,44.881,44.881,0,0,0-7.343-1.49,14.157,14.157,0,0,0-4.53-.488c-1.519-.089-2.963-.667-4.524-.583-1.85.1-3.707.017-5.561.032a6.942,6.942,0,0,0-1.952.108,20.555,20.555,0,0,1-5.189.516,6.724,6.724,0,0,0-1.623.158c-1.99.6-4.076.618-6.093,1.089a85.468,85.468,0,0,0-11.588,3.34c-3.26,1.268-6.348,2.88-9.479,4.418a86.327,86.327,0,0,0-11.289,7.181.6.6,0,0,0-.12.559.626.626,0,0,0,.481.3c.98.03,1.962,0,2.945.019,2.5.054,5.018-.242,7.476.483a3.771,3.771,0,0,0,.977.062c2.61.065,5.238-.1,7.791.646a42.048,42.048,0,0,1,5.173.6c1.835.257,3.61.823,5.463.937,4.3,1.177,8.67,2.093,12.88,3.612q2.767,1,5.507,2.051A103.175,103.175,0,0,1,178.2,252.8a84.5,84.5,0,0,1,12.484,9.449c.315.3.667.562,1,.844.831.7,1.718,1.346,2.478,2.117a112.36,112.36,0,0,1,7.853,8.313c2.116,2.63,4.361,5.156,6.231,7.97,6.456,9.715,4.363,6.106,9.823,16.948.638,1.267,1.311,2.526,1.819,3.845,1.447,3.755,2.969,7.484,4.06,11.367q.708,2.515,1.439,5.021c.822,2.823,1.234,5.736,1.827,8.606a21.7,21.7,0,0,1,.8,5.479,2.392,2.392,0,0,0,.174.96,7.951,7.951,0,0,1,.39,3.229,37.779,37.779,0,0,0,.76,7.447c.013.082.124.217.176.211.2-.024.492-.032.575-.16.774-1.181,1.58-2.35,2.247-3.591,1.287-2.4,2.374-4.9,3.463-7.4a76.474,76.474,0,0,0,4.675-15.262c.329-1.6.407-3.249.835-4.812a21.593,21.593,0,0,0,.44-4.542c.089-1.52.708-2.963.581-4.524-.089-1.083-.017-2.18-.017-3.272" transform="translate(29.452 35.954)"/></g></svg>