<svg xmlns="http://www.w3.org/2000/svg" xmlns:xlink="http://www.w3.org/1999/xlink" width="49.345" height="38.999" viewBox="0 0 49.345 38.999"><defs><style>.a{fill:url(#a);}</style><linearGradient id="a" x1="0.5" x2="0.5" y2="1" gradientUnits="objectBoundingBox"><stop offset="0" stop-color="#4cadab"/><stop offset="1" stop-color="#259ebe"/></linearGradient></defs><path class="a" d="M21.693,35.856a.8.8,0,0,1-.8.8H14.53a.8.8,0,0,1,0-1.592H20.9A.8.8,0,0,1,21.693,35.856ZM11.347,19.142H6.571a.8.8,0,0,0,0,1.592h4.775a.8.8,0,0,0,0-1.592Zm0,3.184H6.571a.8.8,0,0,0,0,1.592h4.775a.8.8,0,0,0,0-1.592Zm0,3.184H6.571a.8.8,0,0,0,0,1.592h4.775a.8.8,0,0,0,0-1.592Zm0,9.551H6.571a.8.8,0,0,0,0,1.592h4.775a.8.8,0,0,0,0-1.592ZM14.53,23.918H18.51a.8.8,0,1,0,0-1.592H14.53a.8.8,0,0,0,0,1.592ZM20.9,25.51H14.53a.8.8,0,0,0,0,1.592H20.9a.8.8,0,0,0,0-1.592Zm0-6.367H14.53a.8.8,0,0,0,0,1.592H20.9a.8.8,0,0,0,0-1.592Zm0,11.142H14.53a.8.8,0,0,0,0,1.592H20.9a.8.8,0,0,0,0-1.592ZM9.755,15.959a.8.8,0,0,0,.8-.8V13.571a.8.8,0,0,0-1.592,0v1.592A.8.8,0,0,0,9.755,15.959Zm-3.184-.8V13.571a.8.8,0,0,0-1.592,0v1.592a.8.8,0,0,0,1.592,0Zm7.959,0V13.571a.8.8,0,0,0-1.592,0v1.592a.8.8,0,0,0,1.592,0Zm3.184.8a.8.8,0,0,0,.8-.8V13.571a.8.8,0,0,0-1.592,0v1.592A.8.8,0,0,0,17.714,15.959Zm3.979-3.184a.8.8,0,0,0-.8.8v1.592a.8.8,0,0,0,1.592,0V13.571A.8.8,0,0,0,21.693,12.775Zm7.959,0a.8.8,0,0,0-.8.8v1.592a.8.8,0,0,0,1.592,0V13.571A.8.8,0,0,0,29.652,12.775Zm3.979,3.184a.8.8,0,0,0,.8-.8V13.571a.8.8,0,0,0-1.592,0v1.592A.8.8,0,0,0,33.631,15.959Zm3.979,0a.8.8,0,0,0,.8-.8V13.571a.8.8,0,0,0-1.592,0v1.592A.8.8,0,0,0,37.611,15.959Zm3.979-3.184a.8.8,0,0,0-.8.8v1.592a.8.8,0,0,0,1.592,0V13.571A.8.8,0,0,0,41.59,12.775Zm3.979,0a.8.8,0,0,0-.8.8v1.592a.8.8,0,0,0,1.592,0V13.571A.8.8,0,0,0,45.57,12.775Zm-9.551,9.551H39.2a1.593,1.593,0,0,1,1.592,1.592.8.8,0,1,0,1.592,0A3.187,3.187,0,0,0,39.2,20.734h-.8V19.142a.8.8,0,1,0-1.592,0v1.592h-.8a3.187,3.187,0,0,0-3.184,3.184V25.51a3.187,3.187,0,0,0,3.184,3.184H39.2a1.593,1.593,0,0,1,1.592,1.592v1.592A1.593,1.593,0,0,1,39.2,33.468h-.8V30.285a.8.8,0,1,0-1.592,0v3.184h-.8a1.593,1.593,0,0,1-1.592-1.592.8.8,0,1,0-1.592,0,3.187,3.187,0,0,0,3.184,3.184h.8v1.592a.8.8,0,1,0,1.592,0V35.06h.8a3.187,3.187,0,0,0,3.184-3.184V30.285A3.187,3.187,0,0,0,39.2,27.1h-.8V23.918a.8.8,0,1,0-1.592,0V27.1h-.8a1.593,1.593,0,0,1-1.592-1.592V23.918A1.593,1.593,0,0,1,36.019,22.326ZM25.673,35.06a.8.8,0,0,0-.8.8V39.04a.8.8,0,1,0,1.592,0V35.856A.8.8,0,0,0,25.673,35.06ZM50.345,10.388V43.815A2.388,2.388,0,0,1,47.957,46.2H27.583a1.909,1.909,0,0,0-1.348.563.8.8,0,0,1-1.125,0,1.908,1.908,0,0,0-1.348-.563H3.388A2.388,2.388,0,0,1,1,43.815V10.388A2.388,2.388,0,0,1,3.388,8h19.1a3.979,3.979,0,0,1,3.184,1.592A3.979,3.979,0,0,1,28.856,8h19.1A2.388,2.388,0,0,1,50.345,10.388ZM24.73,44.611a2.38,2.38,0,0,0-2.241-1.592H3.388a2.357,2.357,0,0,1-.8-.146v.942a.8.8,0,0,0,.8.8Zm24.023-1.738a2.357,2.357,0,0,1-.8.146h-19.1a2.38,2.38,0,0,0-2.241,1.592H47.957a.8.8,0,0,0,.8-.8Zm0-32.485a.8.8,0,0,0-.8-.8h-19.1a2.388,2.388,0,0,0-2.388,2.388V32.673a.8.8,0,0,1-1.592,0V11.979a2.388,2.388,0,0,0-2.388-2.388H3.388a.8.8,0,0,0-.8.8V40.631a.8.8,0,0,0,.8.8h19.1a3.979,3.979,0,0,1,3.184,1.592,3.979,3.979,0,0,1,3.184-1.592h19.1a.8.8,0,0,0,.8-.8Z" transform="translate(-1 -8)"/></svg>