<svg xmlns="http://www.w3.org/2000/svg" xmlns:xlink="http://www.w3.org/1999/xlink" width="45.832" height="36.666" viewBox="0 0 45.832 36.666"><defs><style>.a{fill:url(#a);}</style><linearGradient id="a" x1="0.5" x2="0.5" y2="1" gradientUnits="objectBoundingBox"><stop offset="0" stop-color="#0b959a"/><stop offset="1" stop-color="#1e9bb5"/></linearGradient></defs><path class="a" d="M4.292,8A2.294,2.294,0,0,0,2,10.292V42.374a2.294,2.294,0,0,0,2.292,2.292H45.54a2.294,2.294,0,0,0,2.292-2.292V10.292A2.294,2.294,0,0,0,45.54,8Zm0,1.528H45.54a.765.765,0,0,1,.764.764v5.347H31.358a14.346,14.346,0,0,0-12.884,0H3.528V10.292A.765.765,0,0,1,4.292,9.528Zm2.292,1.528a1.528,1.528,0,1,0,1.528,1.528,1.528,1.528,0,0,0-1.528-1.528Zm4.583,0a1.528,1.528,0,1,0,1.528,1.528A1.528,1.528,0,0,0,11.166,11.055Zm4.583,0a1.528,1.528,0,1,0,1.528,1.528A1.528,1.528,0,0,0,15.75,11.055Zm9.166,4.583A13,13,0,0,1,37.9,28.624a12.832,12.832,0,0,1-1.167,5.347H34.164a10.628,10.628,0,0,0-1.022-12.161.764.764,0,0,0-1.176.976,9.159,9.159,0,0,1,2.116,5.838,9.065,9.065,0,0,1-1.749,5.347H27.681a3.034,3.034,0,0,0,1.055-2.292v-.764a3.056,3.056,0,0,0-3.055-3.055V25.569a.764.764,0,1,0-1.528,0v2.292a1.527,1.527,0,0,1-1.528-1.528v-.764a1.527,1.527,0,0,1,1.528-1.528H25.68a1.527,1.527,0,0,1,1.528,1.528.764.764,0,0,0,1.528,0,3.056,3.056,0,0,0-3.055-3.055V21.75a.764.764,0,1,0-1.528,0v.764A3.056,3.056,0,0,0,21.1,25.569v.764a3.056,3.056,0,0,0,3.055,3.055H25.68a1.527,1.527,0,0,1,1.528,1.528v.764a1.527,1.527,0,0,1-1.528,1.528V30.916a.764.764,0,1,0-1.528,0v2.292a1.527,1.527,0,0,1-1.528-1.528.764.764,0,1,0-1.528,0,3.034,3.034,0,0,0,1.055,2.292H17.5a9.065,9.065,0,0,1-1.749-5.347,9.177,9.177,0,0,1,9.166-9.166c.236,0,.468.014.7.033a.764.764,0,1,0,.131-1.522c-.273-.024-.55-.039-.83-.039a10.677,10.677,0,0,0-9.248,16.041H13.1a12.832,12.832,0,0,1-1.167-5.347A13,13,0,0,1,24.916,15.639ZM3.528,17.166H16.041A14.484,14.484,0,0,0,10.4,28.624c0,.256.008.511.021.764H9.639a3.055,3.055,0,0,0,0,6.111H40.193a3.055,3.055,0,1,0,0-6.111h-.785c.013-.253.021-.508.021-.764a14.484,14.484,0,0,0-5.638-11.458H46.3V42.374a.765.765,0,0,1-.764.764H4.292a.765.765,0,0,1-.764-.764Zm25.208,1.552a.764.764,0,0,0-.3,1.468,9.324,9.324,0,0,1,1.413.725.756.756,0,0,0,.41.121.765.765,0,0,0,.413-1.408,10.877,10.877,0,0,0-1.643-.844A.759.759,0,0,0,28.735,18.718Zm-19.1,12.2h.949a14.386,14.386,0,0,0,.84,3.055H9.639a1.528,1.528,0,1,1,0-3.055Zm29.606,0h.949a1.528,1.528,0,0,1,0,3.055H38.4A14.386,14.386,0,0,0,39.244,30.916ZM5.819,38.555a.764.764,0,0,0-.764.764v1.528a.764.764,0,1,0,1.528,0V39.319A.764.764,0,0,0,5.819,38.555Zm3.819,0a.764.764,0,0,0-.764.764v1.528a.764.764,0,1,0,1.528,0V39.319A.764.764,0,0,0,9.639,38.555Zm3.819,0a.764.764,0,0,0-.764.764v1.528a.764.764,0,1,0,1.528,0V39.319A.764.764,0,0,0,13.458,38.555Zm3.819,0a.764.764,0,0,0-.764.764v1.528a.764.764,0,1,0,1.528,0V39.319A.764.764,0,0,0,17.277,38.555Zm3.819,0a.764.764,0,0,0-.764.764v1.528a.764.764,0,1,0,1.528,0V39.319A.764.764,0,0,0,21.1,38.555Zm3.819,0a.764.764,0,0,0-.764.764v1.528a.764.764,0,1,0,1.528,0V39.319A.764.764,0,0,0,24.916,38.555Zm3.819,0a.764.764,0,0,0-.764.764v1.528a.764.764,0,1,0,1.528,0V39.319A.764.764,0,0,0,28.735,38.555Zm3.819,0a.764.764,0,0,0-.764.764v1.528a.764.764,0,1,0,1.528,0V39.319A.764.764,0,0,0,32.555,38.555Zm3.819,0a.764.764,0,0,0-.764.764v1.528a.764.764,0,1,0,1.528,0V39.319A.764.764,0,0,0,36.374,38.555Zm3.819,0a.764.764,0,0,0-.764.764v1.528a.764.764,0,1,0,1.528,0V39.319A.764.764,0,0,0,40.193,38.555Zm3.819,0a.764.764,0,0,0-.764.764v1.528a.764.764,0,1,0,1.528,0V39.319A.764.764,0,0,0,44.013,38.555Z" transform="translate(-2 -8)"/></svg>