<svg xmlns="http://www.w3.org/2000/svg" xmlns:xlink="http://www.w3.org/1999/xlink" width="41.667" height="41.667" viewBox="0 0 41.667 41.667"><defs><style>.a{fill:url(#a);}</style><linearGradient id="a" x1="0.5" y1="-0.01" x2="0.5" y2="1.014" gradientUnits="objectBoundingBox"><stop offset="0" stop-color="#079494"/><stop offset="1" stop-color="#249cbc"/></linearGradient></defs><path class="a" d="M45.263,22.026H38.052V12.41a3.208,3.208,0,0,0-3.205-3.205H26.032V8.4a2.407,2.407,0,0,0-2.4-2.4H20.423a2.407,2.407,0,0,0-2.4,2.4v.8H9.205A3.208,3.208,0,0,0,6,12.41V44.462a3.208,3.208,0,0,0,3.205,3.205H45.263a2.407,2.407,0,0,0,2.4-2.4V24.43A2.407,2.407,0,0,0,45.263,22.026ZM34.846,10.808a1.6,1.6,0,0,1,1.6,1.6v9.615h-1.6V14.013a1.6,1.6,0,0,0-1.6-1.6H26.032v-1.6ZM12.41,42.058H26.834v.8H12.41ZM26.834,24.43V40.455H10.808V14.013h7.212v1.6h8.013v-1.6h7.212v8.013H29.237A2.407,2.407,0,0,0,26.834,24.43ZM19.622,8.4a.8.8,0,0,1,.8-.8h3.205a.8.8,0,0,1,.8.8v5.609H19.622ZM7.6,44.462V12.41a1.6,1.6,0,0,1,1.6-1.6h8.814v1.6H10.808a1.6,1.6,0,0,0-1.6,1.6V40.455a1.6,1.6,0,0,0,1.6,1.6v.8a1.6,1.6,0,0,0,1.6,1.6H26.834v.8a2.377,2.377,0,0,0,.147.8H9.205A1.6,1.6,0,0,1,7.6,44.462Zm38.462.8a.8.8,0,0,1-.8.8H29.237a.8.8,0,0,1-.8-.8V24.43a.8.8,0,0,1,.8-.8H45.263a.8.8,0,0,1,.8.8Z" transform="translate(-6 -6)"/><path class="a" d="M48.821,30H37.6A1.6,1.6,0,0,0,36,31.6V36.41H50.423V31.6A1.6,1.6,0,0,0,48.821,30Zm0,4.808H37.6V31.6H48.821Z" transform="translate(-11.961 -10.769)"/><path class="a" d="M14,22H25.218v1.6H14Z" transform="translate(-7.59 -9.179)"/><path class="a" d="M14,26h8.013v1.6H14Z" transform="translate(-7.59 -9.974)"/><path class="a" d="M14,30h4.808v1.6H14Z" transform="translate(-7.59 -10.769)"/><path class="a" d="M14,41h1.6v3.205H14Z" transform="translate(-7.59 -12.955)"/><path class="a" d="M18,37h1.6v6.41H18Z" transform="translate(-8.385 -12.16)"/><path class="a" d="M22,39h1.6v4.808H22Z" transform="translate(-9.179 -12.557)"/><path class="a" d="M26,41h1.6v3.205H26Z" transform="translate(-9.974 -12.955)"/><path class="a" d="M40.205,44.4a.8.8,0,0,1-.8.8H37.8a.8.8,0,0,1-.8-.8V42.8a.8.8,0,0,1,.8-.8h1.6a.8.8,0,0,1,.8.8Z" transform="translate(-12.16 -13.154)"/><path class="a" d="M46.205,44.4a.8.8,0,0,1-.8.8H43.8a.8.8,0,0,1-.8-.8V42.8a.8.8,0,0,1,.8-.8h1.6a.8.8,0,0,1,.8.8Z" transform="translate(-13.352 -13.154)"/><path class="a" d="M52.205,44.4a.8.8,0,0,1-.8.8H49.8a.8.8,0,0,1-.8-.8V42.8a.8.8,0,0,1,.8-.8h1.6a.8.8,0,0,1,.8.8Z" transform="translate(-14.545 -13.154)"/><path class="a" d="M40.205,50.4a.8.8,0,0,1-.8.8H37.8a.8.8,0,0,1-.8-.8V48.8a.8.8,0,0,1,.8-.8h1.6a.8.8,0,0,1,.8.8Z" transform="translate(-12.16 -14.346)"/><path class="a" d="M46.205,50.4a.8.8,0,0,1-.8.8H43.8a.8.8,0,0,1-.8-.8V48.8a.8.8,0,0,1,.8-.8h1.6a.8.8,0,0,1,.8.8Z" transform="translate(-13.352 -14.346)"/><path class="a" d="M52.205,50.4a.8.8,0,0,1-.8.8H49.8a.8.8,0,0,1-.8-.8V48.8a.8.8,0,0,1,.8-.8h1.6a.8.8,0,0,1,.8.8Z" transform="translate(-14.545 -14.346)"/></svg>