<svg xmlns="http://www.w3.org/2000/svg" xmlns:xlink="http://www.w3.org/1999/xlink" width="51.217" height="41.667" viewBox="0 0 51.217 41.667"><defs><style>.a{fill:url(#a);}</style><linearGradient id="a" x1="0.5" x2="0.5" y2="1" gradientUnits="objectBoundingBox"><stop offset="0" stop-color="#249cbd"/><stop offset="1" stop-color="#069493"/></linearGradient></defs><path class="a" d="M25.641,6a10.168,10.168,0,0,0-5.049,1.377,4.572,4.572,0,0,0-3.518,1.809c-.041,0-.078-.006-.122-.006h-.535a8.039,8.039,0,0,0-4,1.077,4,4,0,0,0-3.759,3.928,12.713,12.713,0,0,0,.072,3.058c.025.188.053.423.053.476-.009.038-.016.072-.022.11a.5.5,0,0,1-.066.016c-1.049.282-1.49,1.681-1.049,3.33a3.362,3.362,0,0,0,1.587,2.247,12.511,12.511,0,0,0,1.631,3.211l-7.2,4.657A8.005,8.005,0,0,0,0,38.036v2.573a2.25,2.25,0,0,0,2.247,2.25H6.41v2.4a2.409,2.409,0,0,0,2.4,2.4H42.468a2.409,2.409,0,0,0,2.4-2.4v-2.4h4.094a2.251,2.251,0,0,0,2.25-2.25V38.036a8.008,8.008,0,0,0-3.672-6.745l-6.62-4.282a12.541,12.541,0,0,0,1.906-3.587,3.362,3.362,0,0,0,1.587-2.247c.441-1.65,0-3.049-1.049-3.33-.019,0-.044-.009-.066-.013a8.328,8.328,0,0,0-.335-1.3,2.11,2.11,0,0,1,.225.078.8.8,0,0,0,1.092-.908,7.859,7.859,0,0,0-8.1-6.52h-.535a8.047,8.047,0,0,0-1.49.157A10,10,0,0,0,26.327,6Zm0,1.6h.685a8.141,8.141,0,0,1,8.232,5.64,1.594,1.594,0,0,0-1.214.372,1.475,1.475,0,0,0-.225,1.7,8.169,8.169,0,0,1,.613,2.758.8.8,0,0,0,1.236.635c.041-.025.072-.041.091-.05a2.714,2.714,0,0,1,.047,2c-.313,1.158-.9,1.693-1.077,1.712a.8.8,0,0,0-.767.573c-1.117,3.75-4.166,7.737-7.622,7.737S19.134,26.7,18.02,22.946a.8.8,0,0,0-.767-.573c-.178-.019-.767-.554-1.077-1.712a3.05,3.05,0,0,1,0-2.016.388.388,0,0,1,.131.063.8.8,0,0,0,1.239-.635,7.639,7.639,0,0,1,.116-1.042,4.158,4.158,0,0,0-.053-1.161,14.367,14.367,0,0,1-.088-3.5c.213-2.125,1.452-3.393,3.33-3.393a.8.8,0,0,0,.479-.16A8.29,8.29,0,0,1,25.641,7.6Zm10.007,3.18h.535a6.184,6.184,0,0,1,6.176,4.05,1.275,1.275,0,0,0-.817.341,1.318,1.318,0,0,0-.219,1.515,6.277,6.277,0,0,1,.47,2.1.8.8,0,0,0,.46.66.812.812,0,0,0,.667.025,2.483,2.483,0,0,1-.05,1.283,2.215,2.215,0,0,1-.673,1.205.8.8,0,0,0-.767.573,9.994,9.994,0,0,1-3.118,4.877.8.8,0,0,0,.5,1.434.786.786,0,0,0,.495-.172c.182-.144.36-.3.535-.463l6.836,4.423a6.419,6.419,0,0,1,2.936,5.4v2.573h0a.649.649,0,0,1-.648.648H44.872v-.066a10.449,10.449,0,0,0-5.2-9.014l-7.149-4.138a15.763,15.763,0,0,0,2.128-4.185,3.988,3.988,0,0,0,2-2.776c.532-1.984.034-3.659-1.18-3.985a1.412,1.412,0,0,0-.228-.044,10.732,10.732,0,0,0-.579-2.182,3.965,3.965,0,0,1,.729.216.785.785,0,0,0,.817-.128.8.8,0,0,0,.272-.783A11.644,11.644,0,0,0,35.2,10.808C35.351,10.8,35.5,10.783,35.648,10.783Zm-19.406.006a6.655,6.655,0,0,0-.31,1.418,15.824,15.824,0,0,0,.091,3.869,6.184,6.184,0,0,1,.066.679c-.019.1-.034.194-.05.294a1.439,1.439,0,0,0-.225.044c-1.218.326-1.715,2-1.183,3.985a3.988,3.988,0,0,0,2,2.776,15.857,15.857,0,0,0,2.128,4.185l-7.146,4.138a10.445,10.445,0,0,0-5.2,9.014v.066H2.247a.649.649,0,0,1-.645-.648V38.036a6.414,6.414,0,0,1,2.939-5.4l7.352-4.758c.075.078.147.16.222.232a.8.8,0,0,0,1.114-1.152,10.388,10.388,0,0,1-2.592-4.42.748.748,0,0,0-.726-.567A1.978,1.978,0,0,1,9.2,20.758a2.5,2.5,0,0,1-.053-1.274.808.808,0,0,0,.695-.019.8.8,0,0,0,.435-.673,6.056,6.056,0,0,1,.088-.8,3.309,3.309,0,0,0-.041-.955,11.154,11.154,0,0,1-.066-2.7c.157-1.581,1.039-2.488,2.426-2.488a.8.8,0,0,0,.479-.16A6.206,6.206,0,0,1,16.242,10.789Zm5.393.783a1.494,1.494,0,0,0-1.108.664l-1.1,1.668a.8.8,0,0,0,1.34.883L21.81,13.2l.98.479a14.612,14.612,0,0,0,6.357,1.465H30.9a.8.8,0,0,0,0-1.6H29.147a13,13,0,0,1-5.656-1.3l-1.07-.52A1.477,1.477,0,0,0,21.635,11.571ZM19.772,29.3a8.135,8.135,0,0,0,5.869,2.986A8.141,8.141,0,0,0,31.51,29.3l7.362,4.263a8.84,8.84,0,0,1,4.4,7.628v4.072a.8.8,0,0,1-.8.8H8.814a.8.8,0,0,1-.8-.8V41.191a8.84,8.84,0,0,1,4.4-7.628ZM32,32.443a.806.806,0,0,0-.31.085l-6.05,3.027-6.05-3.027a.8.8,0,1,0-.72,1.434l6.41,3.205a.82.82,0,0,0,.36.085.81.81,0,0,0,.36-.085l6.41-3.205A.8.8,0,0,0,32,32.443ZM9.615,41.257a.8.8,0,0,0-.8.8v1.6a.8.8,0,1,0,1.6,0v-1.6A.8.8,0,0,0,9.615,41.257Zm4.006,0a.8.8,0,0,0-.8.8v1.6a.8.8,0,1,0,1.6,0v-1.6A.8.8,0,0,0,13.622,41.257Zm4.006,0a.8.8,0,0,0-.8.8v1.6a.8.8,0,1,0,1.6,0v-1.6A.8.8,0,0,0,17.628,41.257Zm4.006,0a.8.8,0,0,0-.8.8v1.6a.8.8,0,1,0,1.6,0v-1.6A.8.8,0,0,0,21.635,41.257Zm4.006,0a.8.8,0,0,0-.8.8v1.6a.8.8,0,0,0,1.6,0v-1.6A.8.8,0,0,0,25.641,41.257Zm4.006,0a.8.8,0,0,0-.8.8v1.6a.8.8,0,1,0,1.6,0v-1.6A.8.8,0,0,0,29.648,41.257Zm4.006,0a.8.8,0,0,0-.8.8v1.6a.8.8,0,0,0,1.6,0v-1.6A.8.8,0,0,0,33.654,41.257Zm4.006,0a.8.8,0,0,0-.8.8v1.6a.8.8,0,0,0,1.6,0v-1.6A.8.8,0,0,0,37.661,41.257Zm4.006,0a.8.8,0,0,0-.8.8v1.6a.8.8,0,0,0,1.6,0v-1.6A.8.8,0,0,0,41.667,41.257Z" transform="translate(0 -6)"/></svg>