<svg xmlns="http://www.w3.org/2000/svg" width="12.98" height="18.565" viewBox="0 0 12.98 18.565"><defs><style>.a{fill:#019d96;}</style></defs><path class="a" d="M11.5,2.01A6.5,6.5,0,0,0,5.008,8.5c0,4.161,5.538,10.92,5.774,11.205l.716.868.716-.868c.236-.286,5.774-7.044,5.774-11.205A6.5,6.5,0,0,0,11.5,2.01Zm0,1.856A4.64,4.64,0,0,1,16.131,8.5c0,2.511-2.891,6.829-4.634,9.117-1.743-2.286-4.634-6.6-4.634-9.117A4.64,4.64,0,0,1,11.5,3.866Zm0,2.311a2.32,2.32,0,1,0,2.32,2.32A2.32,2.32,0,0,0,11.5,6.178Z" transform="translate(-5.008 -2.01)"/></svg>