<svg xmlns="http://www.w3.org/2000/svg" xmlns:xlink="http://www.w3.org/1999/xlink" width="35.257" height="41.667" viewBox="0 0 35.257 41.667"><defs><style>.a{fill:url(#a);}</style><linearGradient id="a" x1="0.5" y1="-0.01" x2="0.5" y2="1.007" gradientUnits="objectBoundingBox"><stop offset="0" stop-color="#259dbe"/><stop offset="1" stop-color="#069493"/></linearGradient></defs><path class="a" d="M43.963,35.586,38.414,22.27a5.59,5.59,0,0,0-2.772-2.912V18.019a2.4,2.4,0,0,0-1.6-2.256v-.949a2.4,2.4,0,0,0-2.184-2.381l1.111-4.442A1.6,1.6,0,0,0,31.41,6H23.847a1.6,1.6,0,0,0-1.555,1.992L23.4,12.433a2.4,2.4,0,0,0-2.185,2.381v.949a2.4,2.4,0,0,0-1.6,2.256v1.339a5.59,5.59,0,0,0-2.772,2.912L11.294,35.586A16.739,16.739,0,0,0,10,42.058a5.616,5.616,0,0,0,5.609,5.609H39.648a5.616,5.616,0,0,0,5.609-5.609A16.739,16.739,0,0,0,43.963,35.586ZM31.41,7.6l-1.2,4.808h-5.16L23.848,7.6Zm-8.59,7.212a.8.8,0,0,1,.8-.8h8.013a.8.8,0,0,1,.8.8v.8H22.821Zm-1.6,4.006v-.8a.8.8,0,0,1,.8-.8H33.237a.8.8,0,0,1,.8.8v.8H21.218Zm18.43,27.244H15.609A4.011,4.011,0,0,1,11.6,42.058,15.145,15.145,0,0,1,12.773,36.2l5.549-13.317a3.993,3.993,0,0,1,3.695-2.462H33.24a3.993,3.993,0,0,1,3.695,2.463L42.484,36.2a15.145,15.145,0,0,1,1.171,5.856A4.011,4.011,0,0,1,39.648,46.065Z" transform="translate(-10 -6)"/><path class="a" d="M22,52H38.026v1.6H22Z" transform="translate(-12.385 -15.141)"/><path class="a" d="M29.4,34.205h5.609V32.6H31.808V31h-1.6v1.6h-.8a2.407,2.407,0,0,0-2.4,2.4v1.6a2.407,2.407,0,0,0,2.4,2.4h3.205a.8.8,0,0,1,.8.8v1.6a.8.8,0,0,1-.8.8H27v1.6h3.205v1.6h1.6v-1.6h.8a2.407,2.407,0,0,0,2.4-2.4v-1.6a2.407,2.407,0,0,0-2.4-2.4H29.4a.8.8,0,0,1-.8-.8v-1.6A.8.8,0,0,1,29.4,34.205Z" transform="translate(-13.378 -10.968)"/></svg>