<svg xmlns="http://www.w3.org/2000/svg" xmlns:xlink="http://www.w3.org/1999/xlink" width="40.064" height="41.667" viewBox="0 0 40.064 41.667"><defs><style>.a{fill:url(#a);}</style><linearGradient id="a" x1="0.5" y1="-0.313" x2="0.5" y2="1.25" gradientUnits="objectBoundingBox"><stop offset="0" stop-color="#059392"/><stop offset="1" stop-color="#249dbd"/></linearGradient></defs><path class="a" d="M40.615,32.4a.8.8,0,0,1-.8.8H31.8a.8.8,0,0,1-.8-.8V30.8a.8.8,0,0,1,.8-.8h8.013a.8.8,0,0,1,.8.8Z" transform="translate(-11.769 -10.769)"/><path class="a" d="M39.052,6A8.027,8.027,0,0,0,31.2,12.41H9.4a2.4,2.4,0,0,0-.8,4.664V36.449a2.411,2.411,0,0,0,2.4,2.4h7.8c-.024.072-.056.144-.072.216l-2.075,8.406.777.192h.825l.986-4.006H31.423l.994,4.006H33.2l.737-.176-2-8.422a2.211,2.211,0,0,1-.064-.216h6.37a2.411,2.411,0,0,0,2.4-2.4V21.866A8.014,8.014,0,0,0,39.052,6ZM8.6,14.814a.8.8,0,0,1,.8-.8H31.039a8.173,8.173,0,0,0,.16,1.6H9.4A.8.8,0,0,1,8.6,14.814Zm11.05,27.244.641-2.6a.8.8,0,0,1,.777-.6h8.365c.8,0,.865.248.946.585l.649,2.62Zm2.572-4.808v-.8h6.41v.8Zm16.827-.8a.8.8,0,0,1-.8.8H30.237v-.8a1.607,1.607,0,0,0-1.6-1.6h-6.41a1.607,1.607,0,0,0-1.6,1.6v.8H11.006a.8.8,0,0,1-.8-.8V17.218H31.712a8.023,8.023,0,0,0,7.34,4.808Zm0-16.026a6.41,6.41,0,1,1,6.41-6.41A6.419,6.419,0,0,1,39.052,20.423Z" transform="translate(-7 -6)"/><path class="a" d="M46,16h1.6v4.808H46Z" transform="translate(-14.75 -7.987)"/><path class="a" d="M46.6,10a1.6,1.6,0,1,0,1.6,1.6A1.6,1.6,0,0,0,46.6,10Z" transform="translate(-14.551 -6.795)"/><path class="a" d="M15,24h9.615v1.6H15Z" transform="translate(-8.59 -9.577)"/><path class="a" d="M15,28h9.615v1.6H15Z" transform="translate(-8.59 -10.372)"/><path class="a" d="M15,32h9.615v1.6H15Z" transform="translate(-8.59 -11.166)"/><path class="a" d="M15,36h9.615v1.6H15Z" transform="translate(-8.59 -11.961)"/><path class="a" d="M31,36h9.615v1.6H31Z" transform="translate(-11.769 -11.961)"/></svg>