<svg xmlns="http://www.w3.org/2000/svg" width="98.215" height="98.146" viewBox="0 0 98.215 98.146"><defs><style>.a{fill:#fbfdfb;}.a,.b{fill-rule:evenodd;}.b{fill:#000100;}.c{fill:#2b4597;}</style></defs><path class="a" d="M100.32,95.995c0-3.805,1.124-6.123,3.044-8.043a10.787,10.787,0,0,1,3.338-2.162,15.958,15.958,0,0,1,4.532-.969h1.557a11.436,11.436,0,0,1,3.615.484c.415.173,2.889.934,2.889,1.211,0,.069-.363,1.384-.415,1.522-.156.4-.19,1.418-.519,1.418h-.086c-.19,0-2.37-2.871-4.964-2.871h-1.245a6.664,6.664,0,0,0-5.207,2.854,10,10,0,0,0-1.764,6.279v.8a8.726,8.726,0,0,0,1.972,5.085,6.586,6.586,0,0,0,4.93,2.128h.225c.623,0,3.1-.225,3.1-.692V98.451l-.173-2.007.017-.242,1.7.19,1.4-.035,1.4-.138-.225,2.318-.017,4.947.086.848a15.949,15.949,0,0,0-1.7.4c-.45.1-1.263.208-1.747.346a19.658,19.658,0,0,1-3.771.415H111.6c-6.089,0-11.313-3.459-11.313-9.444l.035-.052ZM75.671,85.149l1.782.19,1-.035,1.937-.086-.242,7.213.017,4.964.242,7.127v.623H75.688l.277-6.279V91.584l-.294-6.435Zm15.343-.017.848.017c3.771,0,6.5,1.366,6.5,5.1a5.549,5.549,0,0,1-1.955,4.7,8.687,8.687,0,0,1-5.1,1.574H89.44v2.56l.156,6.037h-4.7l.242-4.653V90.027l-.242-4.809,2.422.1h.778Zm-21.76,2.733a33.939,33.939,0,0,0,.848,6.59,64.758,64.758,0,0,0-5.691,3.373c-1.851,1.228-3.546,2.56-5.31,3.754a36.19,36.19,0,0,0,1.609,7.611,36.925,36.925,0,0,0,2.75,6.469c.623,1,1.09,1.955,1.73,2.906.64.969,1.228,1.747,1.9,2.664a31.418,31.418,0,0,0,4.445,4.774,48.216,48.216,0,0,0,5.189,4.03,46.215,46.215,0,0,0,6.02,3.2A38.907,38.907,0,0,0,98.054,136.3h.778a38.748,38.748,0,0,0,11.935-2.162c1.834-.744,3.2-1.245,4.93-2.11a5,5,0,0,0,2.128-1.436c.519-.657,1.038-1.28,1.539-1.955,1.09-1.47,1.782-2.7,2.768-4.272a28.574,28.574,0,0,0,2.2-4.843c.225-.83.605-1.747.882-2.681s.4-1.92.675-2.819a32.89,32.89,0,0,0,.692-6.279v-1.09c0-1.418-.242-2.768-.225-4.03a10.886,10.886,0,0,0-.259-1.834c-.069-.363-.346-1.591-.346-1.73a25.641,25.641,0,0,1,2.889-1.7c.9-.571,1.9-1.124,2.733-1.747.5-.363,5.189-3.754,5.224-3.771v-.311c0-1.8-1.176-5.466-1.678-7.005a32.267,32.267,0,0,0-2.629-5.968c-.571-.917-1.055-1.8-1.609-2.733a29.183,29.183,0,0,0-1.816-2.525,40.394,40.394,0,0,0-4.1-4.5A38.541,38.541,0,0,0,114.486,61.8a34.587,34.587,0,0,0-6.365-2.318c-1.228-.311-2.266-.536-3.581-.761a32.046,32.046,0,0,0-3.754-.519H95.2a35.82,35.82,0,0,0-5.847.9c-2.007.45-3.39.986-5.137,1.522A34.329,34.329,0,0,0,79.632,62.7a7.7,7.7,0,0,0-3.546,3.114,33.594,33.594,0,0,0-6.832,19.806v2.249Z" transform="translate(-48.877 -48.133)"/><path class="b" d="M297.4,223.44v.087c0,5.985,5.224,9.444,11.313,9.444h.692a19.815,19.815,0,0,0,3.771-.415c.5-.138,1.263-.225,1.747-.346a14.77,14.77,0,0,1,1.7-.4l-.086-.848.017-4.947.225-2.318-1.4.138-1.4.035-1.7-.19-.017.242.173,2.007V230.5c0,.484-2.474.692-3.1.692h-.242a6.524,6.524,0,0,1-4.93-2.128,8.726,8.726,0,0,1-1.972-5.085V223.2a9.933,9.933,0,0,1,1.764-6.279,6.664,6.664,0,0,1,5.207-2.854h1.263c2.595,0,4.757,2.871,4.964,2.871h.086c.329,0,.346-1.038.519-1.418.052-.138.415-1.453.415-1.522,0-.277-2.474-1.055-2.889-1.211a11.026,11.026,0,0,0-3.615-.484h-1.557a15.829,15.829,0,0,0-4.532.969,10.787,10.787,0,0,0-3.338,2.162c-1.955,1.885-3.079,4.2-3.079,8.009Z" transform="translate(-245.957 -175.578)"/><path class="b" d="M212.684,215.772c0-.173.052-.225.225-.225h1.245c1.747,0,2.785,1.626,2.785,3.408v.934a3.523,3.523,0,0,1-3.338,3.788h-.934v-7.9Zm-1.384-1.747h-.778l-2.422-.1.259,4.791V229.16l-.242,4.653h4.722l-.156-6.037v-2.543h1.868a8.727,8.727,0,0,0,5.1-1.574,5.549,5.549,0,0,0,1.955-4.7c0-3.736-2.733-5.12-6.5-5.12l-.848-.035-2.958.225Z" transform="translate(-172.104 -176.818)"/><path class="b" d="M155.177,220.435v7.282L154.917,234h4.722v-.623l-.242-7.127-.017-4.964.259-7.213-1.937.086-1,.035-1.8-.19Z" transform="translate(-128.106 -176.983)"/><path class="a" d="M234.6,224.125v7.9h.934a3.533,3.533,0,0,0,3.338-3.788v-.934c0-1.782-1.055-3.408-2.785-3.408h-1.245C234.669,223.9,234.6,223.952,234.6,224.125Z" transform="translate(-194.02 -185.171)"/><path class="c" d="M97.436,40.528c-.173-.9-.432-2.162-.657-3.044a28.032,28.032,0,0,1-.8-3.01h-.156c-.259,1-5.9,7.455-7.455,8.58A39.727,39.727,0,0,0,30.184,14.1a42.189,42.189,0,0,1,4.567-4.29c.969-.726,1.782-1.4,2.854-2.11s2.041-1.159,3.148-1.816C43.97,4,51.6,2.162,56.787,2.162h.225a33.207,33.207,0,0,1,7.507.951c1.09.346,2.2.571,3.321.951.5.173,2.958,1.124,3.131,1.142a42.715,42.715,0,0,0-4.48-2.024c-.415-.121-.813-.259-1.211-.415-.329-.1-.882-.311-1.211-.415-.865-.329-1.678-.432-2.543-.709A46.171,46.171,0,0,0,50.041,0C48.9,0,47.9.086,46.859.086c-1.194,0-2.076.208-3.027.242a18.1,18.1,0,0,0-2.854.363,26.724,26.724,0,0,1-2.785.467l-.225.156A34.324,34.324,0,0,0,33.8,2.4c-.588.259-1.366.432-1.955.692s-1.28.554-1.851.778A49.632,49.632,0,0,0,23.04,7.455c-4.324,2.491-8.1,6.21-11.364,9.79C5.916,23.594,0,35.788,0,47.879V50.82a38.2,38.2,0,0,0,.657,6.314,19.6,19.6,0,0,0,.588,2.906c.052.173.709,2.768.709,2.785.329-.225,2.906-4.03,3.7-4.826a35.49,35.49,0,0,1,4.013-4.048A39.726,39.726,0,0,0,67.252,84.394a36.046,36.046,0,0,1-4.186,3.736,35.633,35.633,0,0,1-5.38,3.442,32.566,32.566,0,0,1-14.132,3.615H41.393a28.715,28.715,0,0,1-5.691-.657c-.744-.225-1.851-.381-2.595-.571a21.968,21.968,0,0,0-2.629-.623c-.1-.277-3.581-1.245-4.1-1.47q-.96-.415-1.972-.83a17.6,17.6,0,0,0-1.989-.882c.363.5,4.843,2.8,5.777,3.287a40.643,40.643,0,0,0,6.59,2.474,58.53,58.53,0,0,0,15.983,2.231,36.278,36.278,0,0,0,5.777-.346c.951-.173,1.661-.259,2.56-.467a25.1,25.1,0,0,1,2.595-.5v-.156c1.418,0,6.331-2.128,7.524-2.716A52.315,52.315,0,0,0,75.8,90.223a49.984,49.984,0,0,0,10.742-9.79c.726-.969,1.488-1.9,2.231-2.871s1.332-2.024,2.041-3.079A46.446,46.446,0,0,0,94.323,67.7c.5-1.124,1-2.474,1.418-3.7.4-1.176.726-2.854,1.142-3.978a51.3,51.3,0,0,0,1.332-8.977V47.239A52.357,52.357,0,0,0,97.436,40.528ZM55.663,10.586c1.315.225,2.352.45,3.581.761a35.9,35.9,0,0,1,6.365,2.318A38.541,38.541,0,0,1,75.884,20.67a40.4,40.4,0,0,1,4.1,4.5A29.179,29.179,0,0,1,81.8,27.693c.571.917,1.038,1.8,1.609,2.733a31.154,31.154,0,0,1,2.629,5.968c.5,1.522,1.678,5.189,1.678,7.005v.311c-.035,0-4.722,3.39-5.224,3.771-.848.623-1.851,1.176-2.75,1.747a23.266,23.266,0,0,0-2.889,1.7c0,.156.294,1.366.346,1.73a10.641,10.641,0,0,1,.259,1.834c0,1.245.242,2.595.242,4.03v1.09a32.89,32.89,0,0,1-.692,6.279c-.277.9-.4,1.885-.657,2.819-.277.934-.657,1.868-.882,2.681a29.331,29.331,0,0,1-2.2,4.843c-.986,1.574-1.7,2.8-2.768,4.272-.5.675-1,1.28-1.539,1.955a5,5,0,0,1-2.128,1.436c-1.73.865-3.1,1.367-4.93,2.11a38.243,38.243,0,0,1-11.935,2.162h-.778A38.732,38.732,0,0,1,33.886,85.1a46.214,46.214,0,0,1-6.02-3.2,46.561,46.561,0,0,1-5.189-4.03A31.418,31.418,0,0,1,18.231,73.1c-.675-.917-1.263-1.7-1.9-2.664s-1.124-1.92-1.73-2.906a36.375,36.375,0,0,1-2.75-6.469,35.958,35.958,0,0,1-1.609-7.611c1.782-1.194,3.459-2.508,5.31-3.754a60.751,60.751,0,0,1,5.691-3.373,33.939,33.939,0,0,1-.848-6.59V37.484a33.667,33.667,0,0,1,6.832-19.806c1.3-1.7,1.539-2.128,3.546-3.114a35.353,35.353,0,0,1,4.584-2.076c1.764-.536,3.131-1.072,5.137-1.522a35.82,35.82,0,0,1,5.847-.9h5.587A32.275,32.275,0,0,1,55.663,10.586Zm10.1,2.768a38.385,38.385,0,0,1,4.376,2.4c-1.4-.848-2.871-1.626-4.376-2.4Zm11.814,8.528Zm.035.017c.311.329.605.657.917.986-.311-.311-.605-.64-.917-.986Zm1.107,1.211.225.277ZM36.705,11.641c.329-.121.675-.225,1-.311C37.362,11.434,37.034,11.537,36.705,11.641Zm-6.5,2.837c.484-.259.986-.519,1.47-.761C31.153,13.994,30.634,14.288,30.2,14.478Zm3.857-1.851.156-.069ZM87.854,42a3.229,3.229,0,0,1,.069.432A3.746,3.746,0,0,1,87.854,42ZM50.612,9.687H47.36c.571-.017,1.124-.035,1.7-.035C49.592,9.652,50.093,9.669,50.612,9.687Z"/></svg>