<svg xmlns="http://www.w3.org/2000/svg" xmlns:xlink="http://www.w3.org/1999/xlink" width="136.622" height="69.89" viewBox="0 0 136.622 69.89"><defs><style>.a{fill:none;}.b{clip-path:url(#a);}.c{fill:#abd9d6;}.d{fill:#039e97;}.e{fill:#049e98;}.f{fill:#069f98;}.g{fill:#059f98;}.h{fill:#07a099;}.i{fill:#029e97;}.j{fill:#09a099;}.k{fill:#feffff;}.l{fill:#fbfdfd;}.m{fill:#fdfefe;}</style><clipPath id="a"><rect class="a" width="136.622" height="69.89"/></clipPath></defs><g transform="translate(-49 22)"><g class="b" transform="translate(49 -22)"><path class="c" d="M0,30.356Q0,18.815,0,7.275c0-.181,0-.363.006-.543,0-.136.075-.2.222-.206.066,0,.132,0,.2,0q2,0,4,0a1.509,1.509,0,0,1,.294.024.181.181,0,0,1,.1.093.335.335,0,0,1,.025.144c0,.181,0,.363,0,.544q0,22.414,0,44.829,0,.494,0,.989a1.678,1.678,0,0,0,.062.586.36.36,0,0,1,.021.146,5.05,5.05,0,0,0,.123,1.075c.047.324.144.64.22.96a10.475,10.475,0,0,0,.479,1.5,11.97,11.97,0,0,0,.826,1.736c.333.55.686,1.084,1.07,1.6a10.646,10.646,0,0,0,1.479,1.587,11.619,11.619,0,0,0,1.913,1.389,11.144,11.144,0,0,0,2.435,1.072c.583.17,1.177.3,1.772.42a1.868,1.868,0,0,0,.246.018,1.273,1.273,0,0,1,.295.022,2.973,2.973,0,0,0,.882.077q.568.006,1.137,0a3.366,3.366,0,0,0,.783-.072c.236-.058.485-.064.729-.109a11.861,11.861,0,0,0,3.031-1.01,15.586,15.586,0,0,0,2.065-1.253.538.538,0,0,0,.114-.15.049.049,0,0,0-.015-.044.547.547,0,0,0-.14-.027c-.33,0-.659,0-.988-.007a2.121,2.121,0,0,1-.49-.048,2.449,2.449,0,0,0-.44-.042,1.825,1.825,0,0,1-.586-.071.563.563,0,0,0-.146-.022,16.429,16.429,0,0,1-2.6-.527c-.665-.189-1.306-.444-1.949-.693-.306-.119-.594-.284-.891-.426a14.442,14.442,0,0,1-2.166-1.276c-.468-.334-.925-.681-1.361-1.06-.373-.325-.727-.666-1.083-1.008-.31-.3-.555-.651-.845-.965-.188-.2-.334-.447-.51-.663a12.451,12.451,0,0,1-.928-1.4,12.17,12.17,0,0,1-.723-1.348c-.2-.434-.4-.868-.554-1.318-.077-.217-.168-.429-.234-.649A21.333,21.333,0,0,1,7.3,48.857a4.137,4.137,0,0,1-.09-.632c-.126-.362-.056-.753-.168-1.118a1.068,1.068,0,0,1-.016-.295c-.005-.478-.011-.956-.011-1.433q0-22.365,0-44.73c0-.164.008-.329.015-.493A.159.159,0,0,1,7.153.02,2.347,2.347,0,0,1,7.4,0H11.55c.27.007.31.046.315.319,0,.165,0,.33,0,.494q0,17.373,0,34.746c0,.2.008.395.015.592,0,.052.1.112.149.1a1.305,1.305,0,0,0,.142-.036c.514-.176,1.049-.274,1.57-.421.11-.031.227-.035.338-.064a.171.171,0,0,0,.127-.139,2.535,2.535,0,0,0,.024-.343q0-1.334,0-2.669c0-.28,0-.56,0-.84a.343.343,0,0,1,.156-.29,15.539,15.539,0,0,1,1.826-1.17c.289-.158.57-.328.866-.473a16.2,16.2,0,0,1,3.145-1.146c.4-.1.8-.184,1.2-.272.08-.018.163-.018.244-.029.13-.018.26-.038.389-.056.1-.014.195-.033.293-.039a2.59,2.59,0,0,0,.684-.076.955.955,0,0,1,.294-.019q.988,0,1.977,0a.857.857,0,0,1,.246.013,3.332,3.332,0,0,0,.832.085,2.7,2.7,0,0,1,.292.041,1.294,1.294,0,0,0,.241.044,3.908,3.908,0,0,1,.875.136c.548.105,1.091.238,1.629.384a11.878,11.878,0,0,1,1.218.4,16.582,16.582,0,0,1,1.719.746,17.712,17.712,0,0,1,2.074,1.24,9.067,9.067,0,0,1,1.163.912,13.2,13.2,0,0,1,1.438,1.351,3.978,3.978,0,0,1,.488.556c.13.188.3.348.441.53.24.313.481.626.7.954.237.355.462.72.668,1.094.23.418.439.848.645,1.279.156.326.308.656.433,1a20.862,20.862,0,0,1,.792,2.694c.082.368.121.744.2,1.113a2.085,2.085,0,0,1,.02.3.987.987,0,0,0,.021.245,2.85,2.85,0,0,1,.078.832,2.356,2.356,0,0,0,.061.637,1.051,1.051,0,0,1,.023.294c0,.247,0,.494,0,.741a.882.882,0,0,1-.013.246,3.4,3.4,0,0,0-.075.883,1.865,1.865,0,0,1-.063.586.684.684,0,0,0-.029.194,12.286,12.286,0,0,1-.338,1.987,17.3,17.3,0,0,1-.578,1.936,10.269,10.269,0,0,1-.527,1.276c-.1.206-.208.412-.307.62a17.14,17.14,0,0,1-1.3,2.156c-.212.314-.466.595-.694.9A15.5,15.5,0,0,1,36.2,58.144a4.3,4.3,0,0,1-.484.42c-.237.175-.445.388-.685.564a16.884,16.884,0,0,1-2.023,1.317.71.71,0,0,0-.338.342,13.219,13.219,0,0,1-.885,1.539c-.271.43-.6.821-.9,1.238a7.225,7.225,0,0,1-.679.782,3.922,3.922,0,0,0-.258.3,3.2,3.2,0,0,1-.592.592,2.156,2.156,0,0,0-.227.19A13.787,13.787,0,0,1,26.8,67.238c-.3.2-.627.362-.939.543-.385.223-.792.4-1.192.592a13.349,13.349,0,0,1-2.268.825c-.285.077-.566.174-.855.234-.449.094-.9.191-1.352.264a6.473,6.473,0,0,1-.929.1,5.674,5.674,0,0,1-1.473.092c-.609.007-1.219,0-1.828-.006a1.5,1.5,0,0,1-.489-.056.665.665,0,0,0-.194-.031,2.779,2.779,0,0,1-.83-.1,11.5,11.5,0,0,1-1.691-.323c-.4-.1-.795-.208-1.185-.334-.375-.121-.748-.254-1.111-.407A16.325,16.325,0,0,1,8.9,67.9a18.537,18.537,0,0,1-2.047-1.282c-.424-.312-.816-.663-1.237-.978a2.109,2.109,0,0,1-.216-.2q-.438-.436-.874-.873a4.392,4.392,0,0,1-.421-.483c-.175-.238-.387-.446-.565-.684a17.588,17.588,0,0,1-1.259-1.885c-.218-.388-.434-.776-.62-1.179a12.152,12.152,0,0,1-.584-1.412c-.1-.313-.2-.626-.31-.937A16.3,16.3,0,0,1,.3,56.126c-.083-.369-.088-.749-.181-1.117a1.423,1.423,0,0,1-.018-.3,2.019,2.019,0,0,0-.055-.489,1.347,1.347,0,0,1-.035-.342Q0,53.29,0,52.7q0-11.17,0-22.34M11.866,43.794h0c0,.708,0,1.416,0,2.123a2.328,2.328,0,0,0,.069.734,1.252,1.252,0,0,1,.024.294,2.045,2.045,0,0,0,.023.295c.094.432.165.869.269,1.3a13.575,13.575,0,0,0,1.037,2.815,11.8,11.8,0,0,0,.716,1.237c.244.372.514.724.788,1.071.233.3.488.577.747.852a11.383,11.383,0,0,0,1.5,1.281,8.618,8.618,0,0,0,.989.648,12.331,12.331,0,0,0,2.949,1.23,10.06,10.06,0,0,0,1.056.232,5.737,5.737,0,0,0,1.223.123,1.067,1.067,0,0,1,.243.032,1.394,1.394,0,0,0,.241.043,5.511,5.511,0,0,0,1.375-.063.89.89,0,0,1,.2-.017A3.706,3.706,0,0,0,26,57.949c.222-.051.452-.074.677-.123a16.682,16.682,0,0,0,1.743-.53,1.446,1.446,0,0,0,.18-.081.472.472,0,0,0,.254-.288c.092-.3.186-.6.267-.9a9.544,9.544,0,0,0,.35-1.933.565.565,0,0,1,.018-.146,1.936,1.936,0,0,0,.069-.684q0-.593,0-1.185a2.064,2.064,0,0,0-.069-.684.79.79,0,0,1-.022-.245,8.219,8.219,0,0,0-.148-1.021,7.545,7.545,0,0,0-.271-1.1,11.727,11.727,0,0,0-.657-1.752,11.445,11.445,0,0,0-1.208-2.031,14.75,14.75,0,0,0-1.231-1.473,13.847,13.847,0,0,0-1.6-1.383,11.415,11.415,0,0,0-1.157-.751c-.443-.251-.908-.463-1.366-.69a2.608,2.608,0,0,0-.318-.133c-.42-.142-.842-.28-1.263-.419a6.682,6.682,0,0,0-.764-.187c-.242-.05-.489-.067-.727-.123a2.578,2.578,0,0,0-.586-.064c-.609,0-1.218-.005-1.827,0a2.482,2.482,0,0,0-.831.08.418.418,0,0,1-.147.015,3.767,3.767,0,0,0-.873.141,12.13,12.13,0,0,0-1.887.562c-.214.081-.418.191-.624.293a.182.182,0,0,0-.1.158c-.006.115-.009.23-.009.345q0,1.087,0,2.173m24.705,1.64c0-.181,0-.362,0-.543a.894.894,0,0,0-.01-.246,3.486,3.486,0,0,1-.088-.881.919.919,0,0,0-.013-.147c-.1-.466-.18-.935-.294-1.4a11.386,11.386,0,0,0-.879-2.4c-.163-.323-.337-.64-.521-.952a11.169,11.169,0,0,0-1.34-1.825,12.984,12.984,0,0,0-2.032-1.865,14.416,14.416,0,0,0-1.626-1.024,12.826,12.826,0,0,0-1.254-.579,12.281,12.281,0,0,0-1.45-.471,6.774,6.774,0,0,0-1.108-.225,2.137,2.137,0,0,0-.684-.074,5.931,5.931,0,0,0-.683-.088c-.279.015-.559,0-.839,0a1.048,1.048,0,0,0-.295.016,3.1,3.1,0,0,1-.783.078,1.015,1.015,0,0,0-.245.024c-.3.09-.615.093-.92.164a12.9,12.9,0,0,0-1.749.5c-.492.191-.958.435-1.431.667a13.029,13.029,0,0,0-1.7,1.084.09.09,0,0,0-.018.084.094.094,0,0,0,.073.045c.148,0,.3,0,.445,0a4.217,4.217,0,0,1,1.128.073.569.569,0,0,0,.147.009,4.509,4.509,0,0,1,1.176.1,6.346,6.346,0,0,1,.781.091c.277.039.545.124.825.141.649.178,1.309.316,1.944.545q.418.151.831.309a15.572,15.572,0,0,1,2.94,1.5,12.753,12.753,0,0,1,1.884,1.426c.048.045.1.085.151.127.125.106.259.2.374.32a16.958,16.958,0,0,1,1.185,1.255c.319.4.658.778.94,1.2a13.564,13.564,0,0,1,1.482,2.558c.1.191.2.381.275.58.218.567.448,1.129.613,1.716q.107.38.217.758c.124.426.186.866.276,1.3a3.276,3.276,0,0,1,.121.827.361.361,0,0,0,.026.145,1.2,1.2,0,0,1,.059.487,5.7,5.7,0,0,0,.115,1.124c0,.012.019.033.027.032.03,0,.074,0,.087-.024.117-.178.239-.355.339-.542.194-.363.358-.739.523-1.117a11.542,11.542,0,0,0,.706-2.3c.05-.242.061-.49.126-.726a3.259,3.259,0,0,0,.066-.685,4.79,4.79,0,0,0,.088-.683c-.013-.163,0-.329,0-.494" transform="translate(0 0)"/><path class="d" d="M224.647,212.426q0-4.645,0-9.291c0-.165,0-.329.01-.494a.146.146,0,0,1,.126-.129c.082-.006.164-.013.246-.013,1.6,0,3.2-.008,4.793,0a9.25,9.25,0,0,1,5.571,1.863,9.709,9.709,0,0,1,3.469,4.812,10.014,10.014,0,0,1,.518,3.3,9.866,9.866,0,0,1-1.7,5.537,9.434,9.434,0,0,1-5.443,3.938,9.214,9.214,0,0,1-2.389.342c-.51.006-1.021,0-1.531-.005a.144.144,0,0,1-.133-.119c0-.033-.011-.065-.011-.1q0-1.013,0-2.026a.478.478,0,0,1,.018-.146.111.111,0,0,1,.067-.067,1.5,1.5,0,0,1,.245-.019c.445,0,.89,0,1.334,0a6.381,6.381,0,0,0,4.871-2.244,7.3,7.3,0,0,0,1.674-3.368,8.267,8.267,0,0,0,.2-2.109,7.353,7.353,0,0,0-1.727-4.579,6.981,6.981,0,0,0-2.893-2,7.757,7.757,0,0,0-2.556-.5c-.609-.017-1.219-.013-1.828-.017a.73.73,0,0,0-.194.026.1.1,0,0,0-.063.07c-.01.181-.016.362-.016.543q0,7.98,0,15.962c0,.825.119.7-.7.709-.543.005-1.087,0-1.631,0a1.35,1.35,0,0,1-.245-.024c-.027,0-.054-.039-.068-.066a.224.224,0,0,1-.018-.1c0-.148,0-.3,0-.445v-9.241" transform="translate(-170.957 -154.1)"/><path class="d" d="M89.587,9.383q0-3.73,0-7.46c0-.478-.012-.955-.017-1.433a2.029,2.029,0,0,1,.014-.3.112.112,0,0,1,.094-.1,1.205,1.205,0,0,1,.146-.017c1.235-.023,2.47-.048,3.7-.066C94.1,0,94.68.008,95.257,0a11.229,11.229,0,0,1,1.626.1A5.528,5.528,0,0,1,99.787,1.36,4.45,4.45,0,0,1,101.3,3.9a5.791,5.791,0,0,1,.075,2.111,3.941,3.941,0,0,1-1.465,2.6q-.117.091-.232.184c-.037.029-.027.085.021.118.1.064.193.125.288.189a6.51,6.51,0,0,1,1,.807,4.338,4.338,0,0,1,1.182,2.291,6.275,6.275,0,0,1,.1,1.672,4.886,4.886,0,0,1-3.422,4.5,5.685,5.685,0,0,1-1.643.313c-.148,0-.3.012-.444.012q-1.828,0-3.656,0a3.311,3.311,0,0,1-.344-.02c-.026,0-.055-.037-.07-.064a.206.206,0,0,1-.019-.1q0-.964,0-1.927c0-.149.054-.195.216-.2s.3,0,.445,0h2.915a5.767,5.767,0,0,0,1.465-.189,3.586,3.586,0,0,0,.557-.2A2.39,2.39,0,0,0,99.7,14.144a4.231,4.231,0,0,0-.014-1.571A2.481,2.481,0,0,0,98.4,10.85a3.6,3.6,0,0,0-1.065-.38,5.632,5.632,0,0,0-1.178-.109q-1.531,0-3.063,0a3.1,3.1,0,0,1-.343-.021c-.026,0-.053-.038-.069-.064a.2.2,0,0,1-.024-.095q0-.988,0-1.976a.184.184,0,0,1,.028-.093.13.13,0,0,1,.072-.061,2.281,2.281,0,0,1,.294-.021q1.235,0,2.47,0A4.789,4.789,0,0,0,96.749,7.9a3.169,3.169,0,0,0,1.075-.482,2.527,2.527,0,0,0,1.09-2.009,3.437,3.437,0,0,0-.069-.933,2.667,2.667,0,0,0-1.13-1.62,2.7,2.7,0,0,0-1.384-.473c-.115-.009-.23-.014-.345-.018-1.12-.037-2.24-.021-3.359.023-.618.024-.557,0-.557.586q0,7.51,0,15.02c0,.82.111.7-.7.709-.428,0-.856,0-1.284,0-.115,0-.23-.005-.345-.01a.139.139,0,0,1-.13-.121c-.005-.164-.011-.329-.011-.494q0-3.928,0-7.856v-.84Z" transform="translate(-68.162 -0.001)"/><path class="e" d="M256.32,34.062q0-1.507,0-3.015a5.372,5.372,0,0,0-.3-1.745,4.067,4.067,0,0,0-1.255-1.86,3.689,3.689,0,0,0-2.7-.864,5.051,5.051,0,0,0-.929.126,3.275,3.275,0,0,0-1.193.574,4.222,4.222,0,0,0-1.513,2.314,5.765,5.765,0,0,0-.2,1.858,3.855,3.855,0,0,0,1.523,2.978,4.167,4.167,0,0,0,1.945.795c.081.012.164.017.245.028a3.807,3.807,0,0,0,2.028-.287,9.988,9.988,0,0,0,1.226-.637c.127-.075.256-.147.385-.219.044-.025.114,0,.119.044a.494.494,0,0,1,.009.049c0,.675,0,1.351,0,2.026a.305.305,0,0,1-.16.283,6.372,6.372,0,0,1-2.674.958,5.579,5.579,0,0,1-1.085,0,6.484,6.484,0,0,1-2.8-.885,6.047,6.047,0,0,1-2.95-4.188,7.026,7.026,0,0,1,.729-4.833,5.952,5.952,0,0,1,3.916-3.01,6.762,6.762,0,0,1,3.23-.042,5.914,5.914,0,0,1,3.733,2.64,6.214,6.214,0,0,1,.971,2.719,8.611,8.611,0,0,1,.056.986q0,2.595,0,5.189a10.335,10.335,0,0,1-.28,2.5,6.542,6.542,0,0,1-.625,1.606,5.669,5.669,0,0,1-3.228,2.682,7.175,7.175,0,0,1-2.228.393,19,19,0,0,1-2.073-.068c-.574-.054-1.147-.111-1.713-.22a.68.68,0,0,1-.143-.035.13.13,0,0,1-.064-.07.457.457,0,0,1-.023-.145q0-.84,0-1.68c0-.016,0-.033,0-.049.006-.1.06-.157.151-.144l.537.082.439.064a14.717,14.717,0,0,0,2.565.072,7.038,7.038,0,0,0,1.37-.177,4.217,4.217,0,0,0,1.278-.512,3.363,3.363,0,0,0,1.6-2.383,6.192,6.192,0,0,0,.086-1.082q0-1.409,0-2.817Z" transform="translate(-187.127 -18.52)"/><path class="d" d="M310.652,240.785a9.984,9.984,0,0,1-3.634-.72,7.936,7.936,0,0,1-1.51-.834,6.168,6.168,0,0,1-2.427-3.387,7.454,7.454,0,0,1-.3-2.686,6.866,6.866,0,0,1,5.421-6.38,7.542,7.542,0,0,1,4.137.232,6.245,6.245,0,0,1,2.187,1.314,8.32,8.32,0,0,1,1.773,2.356.529.529,0,0,1,.053.137.107.107,0,0,1-.023.089,2.146,2.146,0,0,1-.244.164q-1.477.849-2.956,1.7l-6.386,3.658c-.1.057-.2.117-.3.179a.14.14,0,0,0-.016.213,3.486,3.486,0,0,0,.817.71,7.324,7.324,0,0,0,1.321.664,5.5,5.5,0,0,0,2.322.375,6.372,6.372,0,0,0,1.405-.258,9.212,9.212,0,0,0,2.415-1.109q.187-.12.376-.236a.1.1,0,0,1,.132.02,1.234,1.234,0,0,1,.087.119q.428.751.854,1.5c.016.028.029.059.043.088a.166.166,0,0,1-.04.181c-.139.116-.274.237-.421.343a7.638,7.638,0,0,1-2.1,1.08,9.236,9.236,0,0,1-2.985.487m-5.29-7.013c.016.156.04.4.066.646a.12.12,0,0,0,.187.078c.058-.03.116-.063.172-.1l6.778-3.943c.057-.033.113-.067.169-.1.089-.056.1-.129.037-.2a3.912,3.912,0,0,0-.637-.543,3.236,3.236,0,0,0-1.305-.553,5.139,5.139,0,0,0-1.96.006,4.124,4.124,0,0,0-2.894,2.1,5.39,5.39,0,0,0-.612,2.6" transform="translate(-230.4 -172.439)"/><path class="d" d="M416.72,212.378q0-4.67,0-9.34c0-.618-.064-.569.544-.569.544,0,1.087,0,1.631,0a1.117,1.117,0,0,1,.241.034.108.108,0,0,1,.062.066.509.509,0,0,1,.021.145c0,.148,0,.3,0,.445v9.883c0,.115,0,.231,0,.346,0,.331.009.363.361.36a8.4,8.4,0,0,0,1.232-.055,2.091,2.091,0,0,0,1.585-1.052q1-1.732,2.019-3.454c.323-.549.193-.463.8-.468.642,0,1.285,0,1.927,0a1.329,1.329,0,0,1,.244.024c.02,0,.052.055.045.072a1.709,1.709,0,0,1-.119.266q-.632,1.089-1.268,2.177c-.158.27-.315.541-.475.809-.135.226-.27.453-.415.673a4.7,4.7,0,0,1-1.36,1.477c-.011.007-.023.03-.02.04.011.028.023.065.047.077a.873.873,0,0,0,.141.044c.188.06.38.111.562.185a4.889,4.889,0,0,1,.578.277,2.973,2.973,0,0,1,1.263,1.411,3.6,3.6,0,0,1,.264.847,5.925,5.925,0,0,1,.112,1.03q0,1.927,0,3.855c0,.049-.005.1-.008.148a.149.149,0,0,1-.12.133c-.049,0-.1.012-.147.012q-.964,0-1.927,0a.782.782,0,0,1-.193-.024.1.1,0,0,1-.064-.067,2.844,2.844,0,0,1-.025-.343c0-1,0-2.01,0-3.014a6.5,6.5,0,0,0-.062-.886,2.408,2.408,0,0,0-.19-.662,1.862,1.862,0,0,0-1.513-1.126,2.926,2.926,0,0,0-.444-.028q-1.26,0-2.52,0a.647.647,0,0,0-.2.018.151.151,0,0,0-.093.1c-.014.147-.017.3-.017.444q0,2.471,0,4.941c0,.149,0,.3,0,.445s-.059.205-.212.205q-1.062,0-2.125,0a.153.153,0,0,1-.151-.159c-.006-.164-.01-.329-.01-.494q0-4.621,0-9.241" transform="translate(-317.125 -154.079)"/><path class="d" d="M460.283,234.456a6.9,6.9,0,0,1,.659-3.065,6.735,6.735,0,0,1,4.189-3.662,7.152,7.152,0,0,1,6.786,1.311,6.732,6.732,0,0,1,2.324,3.914,7.142,7.142,0,0,1-.246,3.9,6.788,6.788,0,0,1-4.345,4.284,6.54,6.54,0,0,1-2.574.383,6.925,6.925,0,0,1-5.859-3.471,6.366,6.366,0,0,1-.832-2.36c-.027-.179-.06-.358-.074-.538-.018-.23-.019-.461-.027-.691m11.478-.106a4.916,4.916,0,0,0-.3-1.692,4.13,4.13,0,0,0-2.569-2.625,4.558,4.558,0,0,0-2.817-.1,4.129,4.129,0,0,0-2.811,2.5,5.055,5.055,0,0,0-.344,1.384,5.206,5.206,0,0,0,.428,2.844,4.063,4.063,0,0,0,2.307,2.182,4.527,4.527,0,0,0,2.719.185,4.133,4.133,0,0,0,3-2.551,5.333,5.333,0,0,0,.385-2.126" transform="translate(-350.277 -173.039)"/><path class="d" d="M302.6,30.913a6.446,6.446,0,0,1,5.515-6.463,6.82,6.82,0,0,1,1.427-.076,6.186,6.186,0,0,1,4.277,1.877,7.706,7.706,0,0,1,1.387,1.97.142.142,0,0,1-.051.211c-.028.018-.054.038-.082.055-.056.034-.114.067-.17.1l-8.354,4.783c-.086.049-.17.1-.256.148-.419.235-.426.258-.086.578a3.853,3.853,0,0,0,.538.432,6.394,6.394,0,0,0,1.887.834,4.957,4.957,0,0,0,2.346.031,8.423,8.423,0,0,0,2.714-1.145l.374-.239a.114.114,0,0,1,.13.038c.027.041.055.082.08.125q.377.666.754,1.331c.108.19.118.243-.092.411a7.408,7.408,0,0,1-2.812,1.385,9.614,9.614,0,0,1-1.8.278,3.886,3.886,0,0,1-.395,0,10.205,10.205,0,0,1-2.767-.451A7.306,7.306,0,0,1,304.98,36a5.863,5.863,0,0,1-2.238-3.609,9.038,9.038,0,0,1-.139-1.478m2.413.036c.008.153.012.334.029.514a1.292,1.292,0,0,0,.061.237.052.052,0,0,0,.077.039c.1-.05.207-.1.306-.155q3.075-1.786,6.147-3.575c.085-.049.167-.1.25-.159a.108.108,0,0,0,.019-.167,3.309,3.309,0,0,0-1.865-1.034,4.82,4.82,0,0,0-1.524-.026,3.863,3.863,0,0,0-2.892,1.931,4.829,4.829,0,0,0-.608,2.394" transform="translate(-230.282 -18.541)"/><path class="e" d="M150.5,37.512a6.543,6.543,0,0,1-4.74-1.982A6.29,6.29,0,0,1,144.021,32a6.652,6.652,0,0,1,.257-3.216,6.552,6.552,0,0,1,6.594-4.418,6.521,6.521,0,0,1,5.567,3.688,6.736,6.736,0,0,1,.573,1.982,6.583,6.583,0,0,1-.357,3.254,6.581,6.581,0,0,1-6.158,4.22m4.118-6.617a4.364,4.364,0,0,0-.207-1.435,3.916,3.916,0,0,0-2.1-2.494,4.137,4.137,0,0,0-1.376-.368,4.181,4.181,0,0,0-2.08.292,3.884,3.884,0,0,0-2.237,2.43,5.112,5.112,0,0,0-.239,1.9,4.473,4.473,0,0,0,.233,1.308,3.881,3.881,0,0,0,2.592,2.579,4.2,4.2,0,0,0,2.2.1,3.838,3.838,0,0,0,2.809-2.268,4.61,4.61,0,0,0,.4-2.043" transform="translate(-109.533 -18.534)"/><path class="d" d="M522.315,236.866c0-1.2,0-2.4,0-3.607a6.359,6.359,0,0,1,.322-2.039,5.437,5.437,0,0,1,4.35-3.718,6.275,6.275,0,0,1,3.166.238,5.337,5.337,0,0,1,3.441,3.551,6.023,6.023,0,0,1,.3,1.845q0,.445,0,.889,0,3.385,0,6.769c0,.477.022.46-.455.459h-1.68a1.234,1.234,0,0,1-.245-.018.111.111,0,0,1-.089-.1c-.006-.164-.013-.329-.014-.493q0-3.557,0-7.114a4.709,4.709,0,0,0-.1-1.03,3.39,3.39,0,0,0-1.52-2.22,3.177,3.177,0,0,0-3.77.275,3.484,3.484,0,0,0-1.138,1.92,4.534,4.534,0,0,0-.094,1.03q0,3.557,0,7.115c0,.164,0,.329-.009.493a.144.144,0,0,1-.118.135c-.049,0-.1.011-.147.011q-.963,0-1.927,0a.826.826,0,0,1-.194-.022.1.1,0,0,1-.064-.067c-.013-.13-.023-.262-.023-.393q0-1.951,0-3.9Z" transform="translate(-397.483 -173.055)"/><path class="d" d="M365.143,223.9q0,1.631,0,3.261a2.649,2.649,0,0,0,.084.733,1.208,1.208,0,0,0,.911.882,3.062,3.062,0,0,0,.831.1c.708,0,1.416,0,2.124,0,.839,0,.848,0,.867.067a3.373,3.373,0,0,1,.036.831c.008.362,0,.725,0,1.087,0,.082,0,.164-.009.246a.144.144,0,0,1-.12.133c-.049,0-.1.01-.148.01q-1.605,0-3.211,0a4.219,4.219,0,0,1-1.215-.192,3.409,3.409,0,0,1-2.132-1.788,4.736,4.736,0,0,1-.485-1.8c-.018-.229-.019-.461-.019-.691q0-6,0-12.007c0-.544-.039-.509.505-.509s1.087,0,1.63,0a1.236,1.236,0,0,1,.245.019.113.113,0,0,1,.09.1c.006.115.014.23.014.345q0,1.186,0,2.372c0,.131,0,.263,0,.4s.06.189.173.192c.148,0,.3,0,.445,0q1.877,0,3.755,0c.131,0,.263.009.393.022.025,0,.058.04.066.068a.49.49,0,0,1,.017.146q0,.939,0,1.878a.926.926,0,0,1-.017.146.113.113,0,0,1-.1.1c-.131.013-.263.016-.394.017h-3.706c-.148,0-.3,0-.445,0-.129,0-.187.056-.19.171,0,.148,0,.3,0,.445q0,1.606,0,3.212Z" transform="translate(-275.983 -163.058)"/><path class="f" d="M490.98,130q0-1.778,0-3.556a5.133,5.133,0,0,1,.179-1.366,4.15,4.15,0,0,1,2.873-3,5.532,5.532,0,0,1,2.048-.234,4.943,4.943,0,0,1,1.768.413,4.175,4.175,0,0,1,2.513,3.254,5.927,5.927,0,0,1,.09,1.081q0,3.556,0,7.112a3.113,3.113,0,0,1-.021.343c0,.025-.039.053-.066.068a.2.2,0,0,1-.1.022q-.691,0-1.382,0a.153.153,0,0,1-.147-.164c0-.148-.007-.3-.007-.444q0-1.827,0-3.655c0-.148-.006-.3-.012-.444a.158.158,0,0,0-.121-.135c-.082-.005-.164-.011-.246-.011h-5.333c-.066,0-.131,0-.2.007a.152.152,0,0,0-.149.162c0,.148-.006.3-.006.444q0,1.8,0,3.605c0,.115,0,.231,0,.346,0,.267-.046.293-.272.294q-.518,0-1.037,0c-.082,0-.164-.007-.246-.012a.143.143,0,0,1-.122-.13c0-.148-.009-.3-.009-.444q0-1.778,0-3.556Zm4.714-2.056q1.26,0,2.519,0a3.137,3.137,0,0,0,.394-.021.149.149,0,0,0,.1-.092.88.88,0,0,0,.023-.244c-.011-.527-.026-1.053-.039-1.58a3.471,3.471,0,0,0-.1-.683,2.592,2.592,0,0,0-1.8-1.984,3.953,3.953,0,0,0-.576-.131,3.042,3.042,0,0,0-1.371.049,2.723,2.723,0,0,0-1.994,1.873,3.912,3.912,0,0,0-.185,1.166c0,.445,0,.889,0,1.334a.741.741,0,0,0,.016.2.12.12,0,0,0,.1.1c.114.009.229.021.343.021q1.284,0,2.568,0" transform="translate(-373.637 -92.718)"/><path class="g" d="M542.819,131.087q0,1.284,0,2.568c0,.132,0,.263,0,.4a.2.2,0,0,1-.184.2,6.6,6.6,0,0,1-1.275.136c-.461-.006-.923,0-1.382-.029a7.157,7.157,0,0,1-3.234-.962,5.935,5.935,0,0,1-2.905-4.207,6.4,6.4,0,0,1,1.916-5.713,5.184,5.184,0,0,1,2.476-1.367c.3-.071.608-.143.914-.2a7.344,7.344,0,0,1,2.063-.115c.492.041.982.095,1.472.155a.162.162,0,0,1,.129.129.444.444,0,0,1,.009.048c0,.477,0,.955,0,1.432a.137.137,0,0,1-.165.132c-.033,0-.066,0-.1-.01a9.386,9.386,0,0,0-2.313-.076,5.938,5.938,0,0,0-1.818.428,4.552,4.552,0,0,0-1.469.979,3.856,3.856,0,0,0-1.146,2.348,5.393,5.393,0,0,0-.031,1.085,4.353,4.353,0,0,0,1.347,2.884,3.536,3.536,0,0,0,.751.557c.159.087.321.168.481.252a3.98,3.98,0,0,0,1.607.439c.278.02.559.011.838.013a.152.152,0,0,0,.154-.156q.006-.222.006-.444,0-1.753,0-3.507c0-.132,0-.263,0-.4,0-.147.062-.207.213-.207q.74,0,1.481,0a.158.158,0,0,1,.162.151c0,.132.005.263.005.4q0,1.334,0,2.667" transform="translate(-406.197 -92.658)"/><path class="h" d="M216.351,10.375q0-4.274,0-8.548c0-.164,0-.329.007-.494a.157.157,0,0,1,.158-.153c.049,0,.1,0,.148,0,.576,0,1.153,0,1.729,0a.765.765,0,0,1,.193.027.1.1,0,0,1,.062.067,2.731,2.731,0,0,1,.027.342q0,1.557,0,3.113,0,7.115,0,14.23,0,.247-.006.494a.16.16,0,0,1-.163.15c-.049,0-.1.005-.148.005-.56,0-1.12,0-1.68,0a1.276,1.276,0,0,1-.243-.028.1.1,0,0,1-.063-.063c-.012-.147-.022-.294-.023-.442q0-4.348,0-8.7" transform="translate(-164.644 -0.894)"/><path class="h" d="M201.191,10.381V1.831c0-.148,0-.3,0-.445s.061-.2.213-.205q.939,0,1.878,0a.475.475,0,0,1,.146.021c.027.009.065.041.068.065.013.13.021.262.021.393q0,8.748,0,17.5c0,.1,0,.2,0,.3a.147.147,0,0,1-.158.149q-.988,0-1.976,0a.488.488,0,0,1-.049-.007.148.148,0,0,1-.13-.125c-.006-.164-.011-.329-.011-.493q0-4.3,0-8.6" transform="translate(-153.107 -0.898)"/><path class="f" d="M440.5,126.409q0,1.778,0,3.557a5.92,5.92,0,0,1-.261,1.8,4.368,4.368,0,0,1-.665,1.315,3.885,3.885,0,0,1-1.929,1.4,4.57,4.57,0,0,1-2.96-.021,3.941,3.941,0,0,1-2.135-1.746,4.61,4.61,0,0,1-.616-1.707,5.428,5.428,0,0,1-.084-.983,4.226,4.226,0,0,1,2.419-3.74,3.881,3.881,0,0,1,1.721-.374,6.064,6.064,0,0,1,1.417.187,2.6,2.6,0,0,1,.974.463.264.264,0,0,1,.112.21c0,.445,0,.889-.008,1.333,0,.037-.082.077-.113.058-.084-.052-.168-.1-.25-.156a3.846,3.846,0,0,0-1.66-.592,2.783,2.783,0,0,0-1.8.389,2.456,2.456,0,0,0-1.1,1.466,3.457,3.457,0,0,0-.038,1.9,2.745,2.745,0,0,0,.828,1.376,2.846,2.846,0,0,0,1.082.574,2.525,2.525,0,0,0,2.176-.3,2.452,2.452,0,0,0,.831-.9,3.615,3.615,0,0,0,.424-1.307,9.483,9.483,0,0,0,.075-1.232q0-3.261,0-6.521c0-.752-.1-.654.651-.651a2.024,2.024,0,0,1,.873.058,2.875,2.875,0,0,1,.039.83c.006,1.1,0,2.207,0,3.31" transform="translate(-328.64 -92.988)"/><path class="f" d="M260.172,141.738a4.374,4.374,0,0,1,.945-2.713,4.317,4.317,0,0,1,2.763-1.581,4.558,4.558,0,0,1,2.052.138,4,4,0,0,1,1.887,1.214,5.484,5.484,0,0,1,.708,1.009c.127.231.12.266-.095.39-.614.353-1.229.7-1.843,1.055l-3.855,2.213c-.085.049-.167.1-.25.157a.108.108,0,0,0-.01.134,1.647,1.647,0,0,0,.4.369,3.954,3.954,0,0,0,1.974.713,3.466,3.466,0,0,0,1.076-.113,5.51,5.51,0,0,0,1.626-.7c.084-.052.167-.105.251-.157a.127.127,0,0,1,.169.048q.039.063.076.127c.1.171.2.341.293.515.265.49.319.4-.188.758a5.1,5.1,0,0,1-2.339.862,6.028,6.028,0,0,1-2.678-.289,4.706,4.706,0,0,1-1.348-.711,3.891,3.891,0,0,1-1.5-2.418c-.037-.177-.062-.357-.081-.537-.016-.147-.015-.3-.022-.482m1.624,0a1.568,1.568,0,0,0,.065.517.053.053,0,0,0,.079.036c.089-.041.179-.079.263-.128q1.916-1.112,3.83-2.227c.1-.058.2-.118.294-.18a.123.123,0,0,0,.016-.2,2.157,2.157,0,0,0-1.005-.593,3,3,0,0,0-1.317-.037,2.612,2.612,0,0,0-2.05,1.782,4.114,4.114,0,0,0-.173,1.032" transform="translate(-197.992 -104.551)"/><path class="i" d="M329.86,128.467q0-2.766,0-5.533c0-.164.006-.329.011-.494a.176.176,0,0,1,.134-.124q.641,0,1.283.009a.114.114,0,0,1,.1.093.511.511,0,0,1,.014.146c0,.132,0,.264,0,.4q0,1.753,0,3.507a2.647,2.647,0,0,0,.015.3c0,.014.053.034.079.031a.173.173,0,0,0,.084-.046,3.116,3.116,0,0,1,2.339-.733,4.669,4.669,0,0,1,1.068.186,2.669,2.669,0,0,1,1.8,1.695,3.656,3.656,0,0,1,.239,1.056c.021.345.044.69.045,1.036.005,1.383,0,2.766,0,4.149a3.33,3.33,0,0,1-.03.39c0,.024-.038.054-.064.064a.433.433,0,0,1-.144.025c-.362,0-.724,0-1.087,0-.181,0-.219-.043-.22-.243,0-.543,0-1.087,0-1.63,0-.988,0-1.976,0-2.964a4.214,4.214,0,0,0-.085-.833,1.992,1.992,0,0,0-.2-.556,1.5,1.5,0,0,0-.653-.653,2.23,2.23,0,0,0-1.488-.21,2.015,2.015,0,0,0-1.624,1.6,3.129,3.129,0,0,0-.078.784q0,2.05,0,4.1c0,.687.082.6-.6.606-.247,0-.494,0-.741,0-.132,0-.2-.034-.2-.217,0-.148,0-.3,0-.445q0-2.741,0-5.484" transform="translate(-251.025 -93.083)"/><path class="f" d="M368.68,143.792q0-1.013,0-2.026a3.726,3.726,0,0,0-.06-.687,1.988,1.988,0,0,0-.963-1.373,3.186,3.186,0,0,0-1.829-.507,2.646,2.646,0,0,0-2,1.018,2.964,2.964,0,0,0-.621,1.329,2.688,2.688,0,0,0-.043.688,3.041,3.041,0,0,0,.543,1.667,2.631,2.631,0,0,0,2.535,1.119,2.293,2.293,0,0,0,.567-.16,3.592,3.592,0,0,0,1.269-.837.723.723,0,0,1,.157-.1.048.048,0,0,1,.043.017.269.269,0,0,1,.021.094c0,.461,0,.922,0,1.384a.364.364,0,0,1-.145.3,2.242,2.242,0,0,1-.234.181,4.118,4.118,0,0,1-1.9.63,4.049,4.049,0,0,1-4.094-2.73,4.727,4.727,0,0,1-.062-3.29,3.927,3.927,0,0,1,3.2-2.686,5.154,5.154,0,0,1,1.18-.087,4.787,4.787,0,0,1,2,.5,3.56,3.56,0,0,1,1.928,2.6,4.941,4.941,0,0,1,.094.982c0,1.367,0,2.734,0,4.1,0,.082,0,.165,0,.247a.167.167,0,0,1-.191.174c-.412,0-.823,0-1.235-.006a.136.136,0,0,1-.131-.12c-.005-.131-.01-.263-.01-.395q0-1.013,0-2.026Z" transform="translate(-275.174 -104.809)"/><path class="j" d="M400.565,235.39q0,3.086,0,6.172c0,.148,0,.3-.009.444a.161.161,0,0,1-.163.15q-.741,0-1.481,0-.346,0-.691,0a.16.16,0,0,1-.156-.156c-.005-.115-.009-.23-.009-.345q0-6.271,0-12.542c0-.131.006-.262.012-.394a.143.143,0,0,1,.135-.118c.066,0,.131-.008.2-.008h1.778c.082,0,.164.005.246.01a.141.141,0,0,1,.132.121c0,.148.009.3.009.444q0,3.111,0,6.222" transform="translate(-302.922 -173.96)"/><path class="j" d="M289.254,235.392q0-3.086,0-6.171c0-.164.005-.329.011-.493a.142.142,0,0,1,.132-.121c.033,0,.065-.008.1-.008h2.024c.033,0,.065.005.1.008a.141.141,0,0,1,.134.12c.005.164.01.329.01.493q0,5.085,0,10.17,0,1.16,0,2.32a2.537,2.537,0,0,1-.019.344.111.111,0,0,1-.1.095c-.049,0-.1.015-.146.015h-1.975c-.049,0-.1-.01-.146-.014a.109.109,0,0,1-.1-.094,4.412,4.412,0,0,1-.02-.443q0-2.493,0-4.986Z" transform="translate(-220.124 -173.964)"/><path class="i" d="M356.365,33.508q.016-1.606.032-3.212a7.269,7.269,0,0,1,.089-1.033,5.467,5.467,0,0,1,1.022-2.486,5.541,5.541,0,0,1,2.108-1.749,3.439,3.439,0,0,1,1.426-.358c.049,0,.1,0,.148,0a.161.161,0,0,1,.165.145c0,.049.007.1.007.148q0,1.186,0,2.372c0,.049-.005.1-.01.147a.161.161,0,0,1-.129.131c-.065.012-.129.024-.194.033a2.177,2.177,0,0,0-1.668,1.178,3.266,3.266,0,0,0-.382,1.268,12.078,12.078,0,0,0-.076,1.331c0,1.812,0,3.624,0,5.436q0,.222-.006.445a.154.154,0,0,1-.144.164c-.033,0-.066.007-.1.007h-2.026a.361.361,0,0,1-.146-.017c-.039-.018-.088-.062-.092-.1-.015-.147-.018-.3-.018-.444q0-1.7,0-3.41Z" transform="translate(-271.195 -18.774)"/><path class="g" d="M226.034,129.183v4.74c0,.132,0,.263,0,.4,0,.19-.052.247-.222.248q-.617,0-1.234,0c-.15,0-.195-.052-.2-.214s0-.3,0-.444q0-4.74,0-9.479c0-.164-.007-.329-.013-.493a.15.15,0,0,0-.13-.126c-.115-.006-.23-.012-.344-.012h-1.975c-.132,0-.263,0-.4,0s-.187-.06-.188-.176q0-.593,0-1.185c0-.117.059-.168.19-.173s.263,0,.395,0h6.615c.148,0,.3.008.443.019.026,0,.051.038.072.062a.081.081,0,0,1,.01.048q0,.641,0,1.283a.163.163,0,0,1-.132.124c-.131,0-.263.006-.395.006H226.5a3.013,3.013,0,0,0-.345.014.11.11,0,0,0-.1.093c-.011.114-.023.228-.023.342q0,1.358,0,2.715Z" transform="translate(-168.432 -93.035)"/><path class="h" d="M400.37,143.577c0-.741,0-1.481,0-2.221a3.753,3.753,0,0,1,.278-1.444,3.336,3.336,0,0,1,2.552-2.1,3.713,3.713,0,0,1,1.854.074,3.351,3.351,0,0,1,2.427,2.607,3.941,3.941,0,0,1,.1.93c0,1.53,0,3.061,0,4.591a1.313,1.313,0,0,1-.024.243c0,.026-.04.051-.067.065a.221.221,0,0,1-.1.02q-.592,0-1.185,0a.438.438,0,0,1-.048-.007.154.154,0,0,1-.13-.125c0-.148-.01-.3-.01-.444q0-2.049,0-4.1a4.506,4.506,0,0,0-.017-.542,2.1,2.1,0,0,0-.922-1.564,1.975,1.975,0,0,0-2.722.483,2.123,2.123,0,0,0-.421,1.141c-.012.2-.013.395-.013.592q0,2.049,0,4.1c0,.482.011.474-.449.47-.329,0-.657-.01-.986-.015-.059,0-.084-.049-.106-.09a.221.221,0,0,1-.013-.1c0-.132,0-.263,0-.4q0-1.086,0-2.172Z" transform="translate(-304.683 -104.812)"/><path class="g" d="M296.917,141.26q0-1.185,0-2.371a2.132,2.132,0,0,1,.021-.295c0-.026.039-.054.067-.068a.225.225,0,0,1,.1-.016c.379,0,.757,0,1.136,0,.179,0,.222.049.227.242,0,.132,0,.263,0,.4,0,1.35,0,2.7,0,4.05a3.891,3.891,0,0,0,.043.689,2.027,2.027,0,0,0,1.3,1.62,1.971,1.971,0,0,0,2.384-.778,2.241,2.241,0,0,0,.374-1.16c.006-.148,0-.3,0-.445q0-2.025,0-4.05c0-.148,0-.3.016-.443,0-.037.052-.076.089-.1a.178.178,0,0,1,.1-.016q.593,0,1.185,0a.192.192,0,0,1,.095.024.132.132,0,0,1,.061.073,1.653,1.653,0,0,1,.017.245q0,2.3,0,4.593a3.969,3.969,0,0,1-.2,1.263,3.312,3.312,0,0,1-2.254,2.237,3.78,3.78,0,0,1-2.565-.085,3.338,3.338,0,0,1-2.08-2.4,3.964,3.964,0,0,1-.115-1.027q0-1.087,0-2.173Z" transform="translate(-225.955 -105.406)"/><path class="i" d="M235.076,31.826q0,2.864,0,5.727c0,.148-.005.3-.011.444a.14.14,0,0,1-.133.119c-.016,0-.033.006-.049.006h-1.925a.221.221,0,0,1-.1-.016c-.028-.014-.066-.042-.068-.067-.012-.147-.02-.3-.02-.443q0-5.776,0-11.553c0-.131.006-.263.011-.394a.142.142,0,0,1,.132-.119c.016,0,.033-.006.049-.006h1.925a.217.217,0,0,1,.1.018c.027.014.065.042.067.066.012.147.022.294.022.442q0,2.888,0,5.776" transform="translate(-177.141 -19.423)"/><path class="g" d="M246.9,143.773c0-.674,0-1.348,0-2.022a5.05,5.05,0,0,1,.079-.883,3.717,3.717,0,0,1,1.948-2.7,2.729,2.729,0,0,1,1.08-.317.567.567,0,0,1,.1.006.162.162,0,0,1,.125.132c0,.148.009.3.009.443q0,.617,0,1.233a.181.181,0,0,1-.147.171c-.048.012-.1.024-.144.032a1.486,1.486,0,0,0-1.165,1.02,3.34,3.34,0,0,0-.186,1.015c-.01.164-.006.329-.006.493q0,1.8,0,3.6a3.063,3.063,0,0,1-.02.344c0,.025-.042.047-.068.067a.082.082,0,0,1-.048.009q-.715,0-1.429,0a.138.138,0,0,1-.123-.128c0-.131-.009-.262-.009-.394q0-1.061,0-2.122Z" transform="translate(-187.884 -104.904)"/><path class="f" d="M291.219,204.225a1.465,1.465,0,0,1-.342.954,1.241,1.241,0,0,1-.642.433c-.111.031-.222.06-.335.082a1.274,1.274,0,0,1-.984-.208,1.541,1.541,0,0,1-.664-1.63,1.291,1.291,0,0,1,.4-.723,1.507,1.507,0,0,1,2.527.653.724.724,0,0,1,.026.145c.008.1.012.2.017.294" transform="translate(-219.337 -154.24)"/><path class="g" d="M400,204.081a1.476,1.476,0,0,1-1.629,1.472,1.512,1.512,0,0,1,.172-3.017A1.485,1.485,0,0,1,400,204.081" transform="translate(-302.123 -154.131)"/><path class="f" d="M233.1.806a1.382,1.382,0,0,1,1.412,1.357,1.359,1.359,0,0,1-1.454,1.462A1.377,1.377,0,0,1,231.718,2.2,1.4,1.4,0,0,1,233.1.806" transform="translate(-176.338 -0.613)"/><path class="k" d="M89.432,149.6c0,.165-.011.33,0,.494a4.791,4.791,0,0,1-.088.683,3.259,3.259,0,0,1-.066.685c-.065.236-.076.484-.126.726a11.542,11.542,0,0,1-.706,2.3c-.164.377-.328.754-.523,1.117-.1.187-.222.364-.339.542-.012.019-.057.021-.087.024-.008,0-.025-.019-.027-.032a5.7,5.7,0,0,1-.115-1.124,1.2,1.2,0,0,0-.059-.487.361.361,0,0,1-.026-.145,3.275,3.275,0,0,0-.121-.827c-.09-.433-.152-.873-.276-1.3q-.11-.379-.217-.758c-.165-.586-.394-1.149-.613-1.715-.077-.2-.178-.389-.275-.58a13.563,13.563,0,0,0-1.482-2.558c-.282-.425-.621-.806-.94-1.2a16.961,16.961,0,0,0-1.185-1.255c-.115-.116-.249-.214-.374-.32-.05-.043-.1-.082-.151-.127a12.752,12.752,0,0,0-1.884-1.426,15.572,15.572,0,0,0-2.94-1.5q-.414-.159-.831-.309c-.635-.229-1.295-.368-1.944-.545-.28-.017-.548-.1-.825-.141a6.345,6.345,0,0,0-.781-.091,4.509,4.509,0,0,0-1.176-.1.569.569,0,0,1-.147-.009,4.217,4.217,0,0,0-1.128-.073c-.148,0-.3,0-.445,0a.094.094,0,0,1-.073-.045.09.09,0,0,1,.018-.084,13.028,13.028,0,0,1,1.7-1.084c.472-.232.939-.475,1.431-.667a12.9,12.9,0,0,1,1.749-.5c.3-.071.619-.074.92-.164a1.014,1.014,0,0,1,.245-.024,3.1,3.1,0,0,0,.783-.078,1.047,1.047,0,0,1,.295-.016c.28,0,.56.01.839,0a5.928,5.928,0,0,1,.683.088,2.137,2.137,0,0,1,.684.074,6.774,6.774,0,0,1,1.108.225,12.285,12.285,0,0,1,1.45.471,12.83,12.83,0,0,1,1.254.579,14.413,14.413,0,0,1,1.626,1.024,12.983,12.983,0,0,1,2.032,1.865,11.17,11.17,0,0,1,1.34,1.825c.184.312.358.629.521.952a11.386,11.386,0,0,1,.879,2.4c.114.461.2.93.294,1.4a.919.919,0,0,1,.013.147,3.486,3.486,0,0,0,.088.881.894.894,0,0,1,.01.246c0,.181,0,.362,0,.543" transform="translate(-52.861 -104.169)"/><path class="l" d="M313.656,241.329a5.389,5.389,0,0,1,.612-2.6,4.123,4.123,0,0,1,2.894-2.1,5.139,5.139,0,0,1,1.96-.006,3.236,3.236,0,0,1,1.305.553,3.91,3.91,0,0,1,.637.543c.065.071.052.144-.037.2-.056.035-.112.069-.169.1l-6.778,3.943c-.057.033-.114.065-.172.1a.12.12,0,0,1-.187-.078c-.026-.245-.05-.49-.066-.647" transform="translate(-238.694 -179.997)"/><path class="m" d="M480.035,241.911a5.332,5.332,0,0,1-.385,2.126,4.132,4.132,0,0,1-3,2.551,4.527,4.527,0,0,1-2.719-.185,4.063,4.063,0,0,1-2.307-2.182,5.206,5.206,0,0,1-.428-2.844,5.056,5.056,0,0,1,.344-1.384,4.129,4.129,0,0,1,2.811-2.5,4.558,4.558,0,0,1,2.817.1,4.13,4.13,0,0,1,2.569,2.625,4.917,4.917,0,0,1,.3,1.692" transform="translate(-358.551 -180.6)"/><path class="l" d="M312.7,37.986a4.83,4.83,0,0,1,.609-2.394,3.862,3.862,0,0,1,2.892-1.931,4.82,4.82,0,0,1,1.524.026,3.308,3.308,0,0,1,1.865,1.034.108.108,0,0,1-.019.167c-.082.054-.164.109-.25.159q-3.073,1.789-6.147,3.575c-.1.057-.2.1-.306.155a.052.052,0,0,1-.077-.039,1.292,1.292,0,0,1-.061-.237c-.017-.18-.021-.361-.029-.514" transform="translate(-237.967 -25.579)"/><path class="m" d="M162.383,37.953a4.611,4.611,0,0,1-.4,2.043,3.838,3.838,0,0,1-2.809,2.268,4.2,4.2,0,0,1-2.2-.1,3.881,3.881,0,0,1-2.592-2.579,4.473,4.473,0,0,1-.234-1.308,5.113,5.113,0,0,1,.239-1.9,3.884,3.884,0,0,1,2.237-2.43,4.181,4.181,0,0,1,2.08-.292,4.137,4.137,0,0,1,1.376.368,3.916,3.916,0,0,1,2.1,2.494,4.365,4.365,0,0,1,.207,1.435" transform="translate(-117.302 -25.592)"/><path class="m" d="M501.061,132.14q-1.284,0-2.568,0c-.115,0-.229-.012-.343-.021a.12.12,0,0,1-.1-.1.738.738,0,0,1-.016-.2c0-.445,0-.889,0-1.334a3.91,3.91,0,0,1,.185-1.166,2.723,2.723,0,0,1,1.994-1.873,3.042,3.042,0,0,1,1.371-.049,3.953,3.953,0,0,1,.576.131,2.592,2.592,0,0,1,1.8,1.984,3.471,3.471,0,0,1,.1.683c.014.527.028,1.053.039,1.58a.88.88,0,0,1-.023.244.149.149,0,0,1-.1.092,3.133,3.133,0,0,1-.394.021q-1.259,0-2.519,0" transform="translate(-379.005 -96.914)"/><path class="l" d="M266.966,146.447a4.111,4.111,0,0,1,.173-1.032,2.612,2.612,0,0,1,2.05-1.782,3,3,0,0,1,1.317.037,2.157,2.157,0,0,1,1.005.593.123.123,0,0,1-.016.2c-.1.061-.195.122-.294.18q-1.914,1.115-3.83,2.227c-.084.049-.174.087-.263.128a.053.053,0,0,1-.079-.036,1.567,1.567,0,0,1-.065-.517" transform="translate(-203.162 -109.262)"/></g></g></svg>